<?xml version="1.0" standalone="no"?>
<!DOCTYPE svg PUBLIC "-//W3C//DTD SVG 20010904//EN"
 "http://www.w3.org/TR/2001/REC-SVG-20010904/DTD/svg10.dtd">
<svg version="1.0" xmlns="http://www.w3.org/2000/svg"
 width="667.000000pt" height="667.000000pt" viewBox="0 0 667.000000 667.000000"
 preserveAspectRatio="xMidYMid meet">
<metadata>
Created by potrace 1.11, written by Peter Selinger 2001-2013
</metadata>
<g transform="translate(0.000000,667.000000) scale(0.100000,-0.100000)"
fill="#000000" stroke="none">
<path d="M595 5750 c-2 -3 -3 -1091 -3 -2418 l0 -2412 484 0 484 0 0 179 c0
134 -3 180 -12 183 -7 2 -120 4 -250 3 l-238 0 -1 30 c-3 151 0 4067 3 4071 3
2 116 4 252 4 l246 0 -2 183 -3 182 -478 0 c-264 0 -480 -2 -482 -5z"/>
<path d="M5110 5750 c-4 -3 -7 -84 -7 -180 l2 -175 135 -2 c74 -1 188 -3 253
-3 l117 0 0 -2053 0 -2053 -242 1 c-134 1 -248 0 -254 -2 -8 -3 -11 -62 -12
-184 l0 -179 484 0 484 0 -2 2417 -3 2418 -473 0 c-261 0 -477 -2 -482 -5z"/>
<path d="M3410 4697 c-3 -2 -36 -7 -75 -11 -38 -3 -79 -8 -90 -10 -253 -58
-412 -127 -577 -251 -332 -250 -512 -633 -512 -1090 1 -700 437 -1222 1119
-1340 103 -18 389 -25 470 -11 122 20 167 30 240 53 97 31 219 88 300 142 65
43 181 142 209 179 20 26 39 4 -213 232 l-113 102 -56 -56 c-156 -158 -369
-235 -612 -222 -127 6 -202 23 -297 66 -235 107 -397 309 -470 589 -21 80 -26
121 -27 241 -1 167 4 214 39 334 97 334 334 553 660 611 55 9 210 7 275 -5
142 -26 282 -100 386 -205 l72 -72 150 121 c82 66 166 135 187 151 l38 30 -79
80 c-155 157 -358 260 -624 317 -88 18 -388 38 -400 25z"/>
</g>
</svg>
