<svg xmlns="http://www.w3.org/2000/svg" width="400" height="120" viewBox="0 0 400 120">
	<style>.a{fill:#F49142;}.b{fill:#4C443D;}</style>
	<path d="M34.5 15.6h-6.5v52.5H34.5v4.6H22.2V11h12.3V15.6z" class="a"/>
	<path d="M68.7 37.3c-0.7-1.1-1.7-2-3.1-2.7 -1.4-0.7-2.9-1.1-4.4-1.1 -1.7 0-3.2 0.3-4.6 1 -1.3 0.6-2.4 1.5-3.4 2.6 -0.9 1.1-1.6 2.4-2.1 3.8s-0.7 2.9-0.7 4.5c0 1.6 0.2 3.1 0.7 4.5 0.5 1.4 1.2 2.7 2.1 3.8 0.9 1.1 2.1 2 3.4 2.6 1.3 0.6 2.9 1 4.6 1 1.7 0 3.2-0.3 4.6-1 1.4-0.6 2.5-1.5 3.4-2.6l4.4 4c-1.4 1.6-3.1 2.9-5.2 3.8 -2.1 0.9-4.4 1.4-7.1 1.4 -2.5 0-4.9-0.4-7.1-1.3 -2.2-0.8-4-2-5.6-3.5 -1.6-1.5-2.8-3.3-3.7-5.5 -0.9-2.1-1.4-4.5-1.4-7.2 0-2.6 0.4-5 1.3-7.1 0.9-2.1 2.1-4 3.7-5.5 1.6-1.5 3.4-2.7 5.6-3.5 2.2-0.8 4.5-1.2 7-1.2 2.3 0 4.6 0.5 6.9 1.4 2.3 0.9 4.1 2.3 5.5 4L68.7 37.3z" class="b"/>
	<path d="M113.3 45.4c0 2.6-0.5 4.9-1.4 7 -0.9 2.1-2.2 4-3.8 5.5 -1.6 1.6-3.5 2.8-5.7 3.6 -2.2 0.9-4.5 1.3-7 1.3 -2.5 0-4.8-0.4-7-1.3 -2.2-0.9-4.1-2.1-5.6-3.6 -1.6-1.6-2.8-3.4-3.7-5.5 -0.9-2.1-1.4-4.5-1.4-7 0-2.5 0.5-4.9 1.4-7 0.9-2.1 2.1-3.9 3.7-5.5 1.6-1.5 3.5-2.7 5.6-3.6 2.2-0.9 4.5-1.3 7-1.3 2.5 0 4.8 0.4 7 1.3 2.2 0.9 4.1 2.1 5.7 3.6 1.6 1.5 2.9 3.3 3.8 5.5C112.9 40.5 113.3 42.8 113.3 45.4zM106.5 45.4c0-1.6-0.2-3.1-0.7-4.5 -0.5-1.4-1.2-2.7-2.1-3.8 -0.9-1.1-2.1-2-3.4-2.6s-2.9-1-4.7-1c-1.8 0-3.3 0.3-4.7 1 -1.4 0.6-2.5 1.5-3.5 2.6 -0.9 1.1-1.6 2.3-2.1 3.8 -0.5 1.4-0.7 2.9-0.7 4.5s0.2 3.1 0.7 4.5c0.5 1.4 1.2 2.7 2.1 3.8 0.9 1.1 2.1 2 3.5 2.6 1.4 0.6 2.9 1 4.7 1 1.8 0 3.3-0.3 4.7-1s2.5-1.5 3.5-2.6c0.9-1.1 1.6-2.4 2.1-3.8C106.2 48.5 106.5 47 106.5 45.4z" class="b"/>
	<path d="M148.6 56.7c-1.2 2-3 3.5-5.1 4.6 -2.2 1-4.4 1.6-6.8 1.6 -2.5 0-4.8-0.5-6.9-1.4 -2-0.9-3.8-2.1-5.2-3.7 -1.4-1.6-2.5-3.4-3.3-5.6 -0.8-2.1-1.2-4.4-1.2-6.8 0-2.4 0.4-4.7 1.2-6.8 0.8-2.1 1.9-3.9 3.4-5.5s3.2-2.8 5.2-3.7c2-0.9 4.3-1.3 6.7-1.3 2.7 0 5 0.6 7 1.7 2 1.1 3.6 2.5 4.7 4.1h0.1V9.4h6.5v52.5h-6.3v-5.2H148.6zM126.9 45.4c0 1.5 0.2 3 0.7 4.4 0.5 1.4 1.2 2.7 2.1 3.8 0.9 1.1 2.1 2 3.4 2.7 1.3 0.7 2.9 1 4.7 1 1.7 0 3.2-0.3 4.6-1 1.4-0.6 2.5-1.5 3.5-2.6 1-1.1 1.7-2.3 2.3-3.8 0.5-1.4 0.8-2.9 0.8-4.5s-0.3-3.1-0.8-4.5c-0.5-1.4-1.3-2.7-2.3-3.8 -1-1.1-2.1-2-3.5-2.6 -1.4-0.6-2.9-1-4.6-1 -1.8 0-3.4 0.3-4.7 1 -1.3 0.6-2.5 1.5-3.4 2.6 -0.9 1.1-1.6 2.4-2.1 3.8C127.2 42.4 126.9 43.9 126.9 45.4z" class="b"/>
	<path d="M197.2 45.2c0 0.4 0 0.7 0 1.1s0 0.7-0.1 1.1h-26.2c0 1.4 0.4 2.7 0.9 3.9 0.6 1.2 1.4 2.3 2.3 3.2 1 0.9 2.1 1.6 3.4 2.1 1.3 0.5 2.6 0.8 4.1 0.8 2.2 0 4.1-0.5 5.8-1.5 1.6-1 2.9-2.2 3.8-3.5l4.6 3.7c-1.8 2.3-3.8 4.1-6.2 5.2 -2.4 1.1-5 1.7-8 1.7 -2.5 0-4.8-0.4-6.9-1.3 -2.1-0.8-4-2-5.5-3.5 -1.5-1.5-2.7-3.3-3.6-5.5 -0.9-2.1-1.3-4.5-1.3-7.1 0-2.5 0.4-4.9 1.3-7.1 0.9-2.2 2.1-4 3.6-5.5 1.5-1.5 3.3-2.7 5.4-3.6 2.1-0.9 4.3-1.3 6.8-1.3 2.4 0 4.6 0.4 6.6 1.2 2 0.8 3.6 1.9 5 3.4 1.4 1.5 2.4 3.3 3.2 5.4C196.9 40.2 197.2 42.5 197.2 45.2zM190.6 42.5c0-1.3-0.3-2.5-0.7-3.6 -0.4-1.1-1-2.1-1.7-3 -0.8-0.8-1.7-1.5-2.8-2 -1.1-0.5-2.5-0.7-4-0.7 -1.4 0-2.7 0.2-3.9 0.7 -1.2 0.5-2.3 1.1-3.2 2 -0.9 0.8-1.6 1.8-2.2 3 -0.6 1.1-0.9 2.4-1 3.6H190.6z" class="b"/>
	<path d="M222.4 34.3h-8.8v17.1c0 2 0.4 3.4 1.1 4.3 0.7 0.9 1.9 1.3 3.5 1.3 0.6 0 1.3-0.1 1.9-0.2 0.7-0.1 1.3-0.3 1.9-0.6l0.2 5.4c-0.8 0.3-1.7 0.5-2.6 0.7 -1 0.2-1.9 0.2-3 0.2 -3.1 0-5.5-0.9-7.1-2.6s-2.5-4.3-2.5-7.7V34.3h-6.3v-5.4h6.3v-9.5h6.5v9.5h8.8V34.3z" class="b"/>
	<path d="M236 34c0.8-1.6 2.1-3 4-4.2 1.9-1.2 4-1.7 6.4-1.7 2.1 0 4 0.4 5.5 1.1 1.5 0.7 2.8 1.7 3.8 2.9 1 1.2 1.8 2.6 2.3 4.2 0.5 1.6 0.7 3.4 0.7 5.2v20.4h-6.5v-18.2c0-1.3-0.1-2.6-0.3-3.8 -0.2-1.2-0.6-2.3-1.1-3.2 -0.6-0.9-1.3-1.7-2.3-2.2 -0.9-0.6-2.2-0.8-3.7-0.8 -2.6 0-4.7 1-6.4 3 -1.7 2-2.5 4.6-2.5 7.9v17.5h-6.5V9.4h6.5v24.6H236z" class="b"/>
	<path d="M277.4 17.1c0 1.2-0.4 2.2-1.3 3 -0.9 0.8-1.9 1.2-3.1 1.2 -1.2 0-2.2-0.4-3-1.2 -0.8-0.8-1.2-1.8-1.2-3 0-1.2 0.4-2.2 1.2-3 0.8-0.8 1.8-1.2 3-1.2 1.2 0 2.2 0.4 3.1 1.2C276.9 14.9 277.4 15.9 277.4 17.1zM276.3 61.9h-6.5V29h6.5V61.9z" class="b"/>
	<path d="M293.6 29c0.1 0.8 0.2 1.8 0.2 2.8 0 1 0.1 1.9 0.1 2.6h0.2c0.4-0.9 1-1.7 1.7-2.5 0.7-0.8 1.5-1.4 2.5-2 0.9-0.6 1.9-1 3.1-1.4 1.1-0.3 2.3-0.5 3.5-0.5 2.1 0 4 0.4 5.5 1.1 1.5 0.7 2.8 1.7 3.8 2.9 1 1.2 1.8 2.6 2.3 4.2 0.5 1.6 0.7 3.4 0.7 5.2v20.4h-6.5V43.6c0-1.3-0.1-2.6-0.3-3.8 -0.2-1.2-0.6-2.3-1.1-3.2 -0.6-0.9-1.3-1.7-2.3-2.2 -1-0.6-2.2-0.8-3.8-0.8 -2.6 0-4.7 1-6.4 3 -1.6 2-2.5 4.6-2.5 7.9v17.5h-6.5V36.1c0-0.9 0-2-0.1-3.4 0-1.4-0.1-2.6-0.2-3.7H293.6z" class="b"/>
	<path d="M334.8 43.3h0.2l13.8-14.3h8.8l-15.4 14.9 16.7 18h-9l-14.9-17.1h-0.2v17.1h-6.5V9.4h6.5V43.3z" class="b"/>
	<path d="M364.6 68.2h6.5V15.6h-6.5v-4.6h12.3v61.7h-12.3V68.2z" class="a"/>
	<path d="M98.1 101.2c-0.6 0.9-1.3 1.5-2.3 2 -0.9 0.4-1.9 0.7-2.9 0.7 -1.1 0-2-0.2-2.9-0.6 -0.9-0.4-1.6-0.9-2.2-1.5s-1.1-1.4-1.4-2.3 -0.5-1.8-0.5-2.8c0-1 0.2-2 0.5-2.8s0.8-1.6 1.4-2.3 1.4-1.1 2.2-1.5c0.9-0.4 1.8-0.6 2.9-0.6 1 0 2 0.2 2.9 0.7 0.9 0.5 1.7 1.1 2.3 2h0.1V81.4h2v22.1h-2v-2.3H98.1zM88 96.6c0 0.8 0.1 1.5 0.4 2.2s0.6 1.3 1 1.8c0.4 0.5 1 0.9 1.6 1.2 0.6 0.3 1.4 0.4 2.2 0.4 0.8 0 1.5-0.1 2.1-0.4 0.6-0.3 1.2-0.7 1.7-1.2 0.5-0.5 0.8-1.1 1.1-1.7 0.3-0.7 0.4-1.4 0.4-2.2 0-0.8-0.1-1.5-0.4-2.2 -0.3-0.7-0.6-1.3-1.1-1.8 -0.5-0.5-1-0.9-1.7-1.2s-1.3-0.4-2.1-0.4c-0.8 0-1.6 0.1-2.2 0.4 -0.6 0.3-1.2 0.7-1.6 1.2 -0.4 0.5-0.8 1.1-1 1.8C88.1 95.2 88 95.9 88 96.6z" class="a"/>
	<path d="M107.9 84.5c0 0.4-0.1 0.7-0.4 1 -0.3 0.3-0.6 0.4-1 0.4 -0.4 0-0.7-0.1-1-0.4 -0.3-0.3-0.4-0.6-0.4-1 0-0.4 0.1-0.7 0.4-1 0.3-0.3 0.6-0.4 1-0.4 0.4 0 0.7 0.1 1 0.4C107.8 83.8 107.9 84.1 107.9 84.5zM107.5 103.5h-2V89.8h2V103.5z" class="a"/>
	<path d="M113.5 106.2c0.5 0.7 1.3 1.3 2.2 1.8 0.9 0.5 1.9 0.7 3 0.7 1 0 1.8-0.1 2.5-0.4 0.7-0.3 1.2-0.7 1.7-1.2s0.7-1.1 0.9-1.7c0.2-0.7 0.3-1.3 0.3-2.1v-2.6h-0.1c-0.5 0.9-1.3 1.5-2.2 2 -1 0.5-1.9 0.7-2.9 0.7 -1.1 0-2-0.2-2.9-0.5 -0.9-0.4-1.6-0.8-2.2-1.4s-1.1-1.3-1.4-2.2c-0.3-0.9-0.5-1.8-0.5-2.8 0-1 0.2-1.9 0.5-2.7 0.3-0.9 0.8-1.6 1.4-2.3s1.4-1.1 2.2-1.5c0.9-0.4 1.8-0.6 2.9-0.6 1 0 2 0.2 2.9 0.7 1 0.5 1.7 1.1 2.3 2h0.1v-2.4h2v13.6c0 0.7-0.1 1.5-0.3 2.4 -0.2 0.8-0.6 1.6-1.1 2.3 -0.6 0.7-1.3 1.3-2.3 1.8 -1 0.5-2.2 0.7-3.7 0.7 -1.3 0-2.5-0.2-3.6-0.7 -1.2-0.5-2.1-1.2-3-2L113.5 106.2zM113.9 96.5c0 0.7 0.1 1.4 0.4 2s0.6 1.2 1 1.7c0.4 0.5 1 0.9 1.6 1.2 0.6 0.3 1.4 0.4 2.2 0.4 0.8 0 1.5-0.1 2.1-0.4 0.6-0.3 1.2-0.6 1.7-1.1 0.5-0.5 0.8-1 1.1-1.7 0.3-0.7 0.4-1.4 0.4-2.2 0-0.7-0.1-1.4-0.4-2 -0.3-0.6-0.6-1.2-1.1-1.7 -0.5-0.5-1-0.9-1.7-1.2s-1.3-0.4-2.1-0.4c-0.8 0-1.6 0.1-2.2 0.4 -0.6 0.3-1.2 0.7-1.6 1.2 -0.4 0.5-0.8 1.1-1 1.7S113.9 95.7 113.9 96.5z" class="a"/>
	<path d="M133.7 84.5c0 0.4-0.1 0.7-0.4 1 -0.3 0.3-0.6 0.4-1 0.4 -0.4 0-0.7-0.1-1-0.4 -0.3-0.3-0.4-0.6-0.4-1 0-0.4 0.1-0.7 0.4-1 0.3-0.3 0.6-0.4 1-0.4 0.4 0 0.7 0.1 1 0.4C133.6 83.8 133.7 84.1 133.7 84.5zM133.3 103.5h-2V89.8h2V103.5z" class="a"/>
	<path d="M144.8 91.5h-3.9v8c0 0.5 0 0.9 0.1 1.3 0.1 0.3 0.2 0.6 0.4 0.8 0.2 0.2 0.4 0.3 0.7 0.4 0.3 0.1 0.5 0.1 0.8 0.1 0.3 0 0.6 0 0.9-0.1 0.3-0.1 0.6-0.2 0.9-0.3l0.1 1.7c-0.4 0.1-0.7 0.2-1.1 0.3 -0.4 0.1-0.8 0.1-1.2 0.1 -0.4 0-0.8 0-1.2-0.1s-0.8-0.3-1.1-0.6 -0.6-0.6-0.9-1.1c-0.2-0.5-0.3-1.1-0.3-1.8v-8.5h-2.8v-1.7h2.8v-3.9h2v3.9h3.9V91.5z" class="a"/>
	<path d="M150.3 84.5c0 0.4-0.1 0.7-0.4 1 -0.3 0.3-0.6 0.4-1 0.4 -0.4 0-0.7-0.1-1-0.4 -0.3-0.3-0.4-0.6-0.4-1 0-0.4 0.1-0.7 0.4-1 0.3-0.3 0.6-0.4 1-0.4 0.4 0 0.7 0.1 1 0.4C150.1 83.8 150.3 84.1 150.3 84.5zM149.9 103.5h-2V89.8h2V103.5z" class="a"/>
	<path d="M164.3 91.2l-8.2 10.6h8.5v1.7h-11.1v-1.4l8.2-10.6h-7.8v-1.7h10.4V91.2z" class="a"/>
	<path d="M170.5 84.5c0 0.4-0.1 0.7-0.4 1 -0.3 0.3-0.6 0.4-1 0.4 -0.4 0-0.7-0.1-1-0.4 -0.3-0.3-0.4-0.6-0.4-1 0-0.4 0.1-0.7 0.4-1 0.3-0.3 0.6-0.4 1-0.4 0.4 0 0.7 0.1 1 0.4C170.4 83.8 170.5 84.1 170.5 84.5zM170.1 103.5h-2V89.8h2V103.5z" class="a"/>
	<path d="M177.2 89.8c0 0.4 0.1 0.8 0.1 1.2 0 0.4 0 0.8 0 1.1h0.1c0.4-0.8 1-1.4 1.9-1.9 0.9-0.5 1.8-0.7 2.8-0.7 1.7 0 3 0.5 3.9 1.6 0.9 1 1.3 2.4 1.3 4.1v8.4h-2v-7.6c0-0.7-0.1-1.4-0.2-2s-0.3-1.1-0.6-1.5c-0.3-0.4-0.7-0.7-1.1-1 -0.5-0.2-1.1-0.4-1.8-0.4 -0.5 0-1 0.1-1.5 0.3 -0.5 0.2-0.9 0.5-1.3 1 -0.4 0.4-0.7 1-0.9 1.7 -0.2 0.7-0.4 1.5-0.4 2.4v7h-2V92.8c0-0.4 0-0.8 0-1.4 0-0.6 0-1.1-0.1-1.6H177.2z" class="a"/>
	<path d="M193.1 106.2c0.5 0.7 1.3 1.3 2.2 1.8 0.9 0.5 1.9 0.7 3 0.7 1 0 1.8-0.1 2.5-0.4 0.7-0.3 1.2-0.7 1.7-1.2s0.7-1.1 0.9-1.7c0.2-0.7 0.3-1.3 0.3-2.1v-2.6h-0.1c-0.5 0.9-1.3 1.5-2.2 2 -1 0.5-1.9 0.7-2.9 0.7 -1.1 0-2-0.2-2.9-0.5 -0.9-0.4-1.6-0.8-2.2-1.4s-1.1-1.3-1.4-2.2c-0.3-0.9-0.5-1.8-0.5-2.8 0-1 0.2-1.9 0.5-2.7 0.3-0.9 0.8-1.6 1.4-2.3s1.4-1.1 2.2-1.5c0.9-0.4 1.8-0.6 2.9-0.6 1 0 2 0.2 2.9 0.7 1 0.5 1.7 1.1 2.3 2h0.1v-2.4h2v13.6c0 0.7-0.1 1.5-0.3 2.4 -0.2 0.8-0.6 1.6-1.1 2.3 -0.6 0.7-1.3 1.3-2.3 1.8 -1 0.5-2.2 0.7-3.7 0.7 -1.3 0-2.5-0.2-3.6-0.7 -1.2-0.5-2.1-1.2-3-2L193.1 106.2zM193.5 96.5c0 0.7 0.1 1.4 0.4 2s0.6 1.2 1 1.7c0.4 0.5 1 0.9 1.6 1.2 0.6 0.3 1.4 0.4 2.2 0.4 0.8 0 1.5-0.1 2.1-0.4 0.6-0.3 1.2-0.6 1.7-1.1 0.5-0.5 0.8-1 1.1-1.7 0.3-0.7 0.4-1.4 0.4-2.2 0-0.7-0.1-1.4-0.4-2 -0.3-0.6-0.6-1.2-1.1-1.7 -0.5-0.5-1-0.9-1.7-1.2s-1.3-0.4-2.1-0.4c-0.8 0-1.6 0.1-2.2 0.4 -0.6 0.3-1.2 0.7-1.6 1.2 -0.4 0.5-0.8 1.1-1 1.7S193.5 95.7 193.5 96.5z" class="a"/>
	<path d="M225.5 93c-0.3-0.6-0.7-1-1.3-1.4 -0.6-0.4-1.3-0.5-2-0.5 -0.4 0-0.7 0-1.1 0.1 -0.4 0.1-0.7 0.2-0.9 0.4 -0.3 0.2-0.5 0.4-0.7 0.7 -0.2 0.3-0.2 0.6-0.2 1 0 0.6 0.3 1.1 0.8 1.5 0.5 0.3 1.4 0.6 2.5 0.9 1.6 0.3 2.8 0.8 3.6 1.4 0.8 0.6 1.2 1.5 1.2 2.6 0 0.8-0.2 1.4-0.5 2 -0.3 0.5-0.7 1-1.2 1.3 -0.5 0.3-1 0.6-1.7 0.7 -0.6 0.1-1.2 0.2-1.9 0.2 -1 0-2-0.2-3-0.6 -1-0.4-1.8-1.1-2.4-2l1.6-1.2c0.4 0.6 0.9 1.1 1.6 1.5 0.7 0.4 1.4 0.6 2.3 0.6 0.4 0 0.8 0 1.2-0.1 0.4-0.1 0.7-0.2 1-0.4 0.3-0.2 0.5-0.4 0.7-0.7 0.2-0.3 0.3-0.7 0.3-1.1 0-0.7-0.3-1.3-1-1.6 -0.7-0.4-1.7-0.7-3-1 -0.4-0.1-0.8-0.2-1.3-0.4 -0.5-0.1-0.9-0.4-1.3-0.6 -0.4-0.3-0.7-0.6-1-1.1 -0.3-0.4-0.4-1-0.4-1.6 0-0.7 0.1-1.3 0.4-1.8 0.3-0.5 0.6-0.9 1.1-1.2 0.5-0.3 1-0.6 1.6-0.7 0.6-0.2 1.2-0.2 1.8-0.2 1 0 1.9 0.2 2.8 0.6 0.9 0.4 1.6 1 2 1.8L225.5 93z" class="a"/>
	<path d="M241.1 103.5c0-0.4-0.1-0.8-0.1-1.2 0-0.4 0-0.8 0-1.1h-0.1c-0.4 0.8-1 1.4-1.9 1.9 -0.9 0.5-1.8 0.7-2.8 0.7 -1.7 0-3-0.5-3.9-1.5 -0.9-1-1.3-2.4-1.3-4.1v-8.4h2v7.6c0 0.7 0.1 1.4 0.2 2s0.3 1.1 0.6 1.5c0.3 0.4 0.7 0.7 1.1 1 0.5 0.2 1.1 0.4 1.8 0.4 0.5 0 1-0.1 1.5-0.3 0.5-0.2 0.9-0.5 1.3-1 0.4-0.4 0.7-1 0.9-1.7 0.2-0.7 0.4-1.5 0.4-2.4v-7h2v10.7c0 0.4 0 0.8 0 1.4s0 1.1 0.1 1.6H241.1z" class="a"/>
	<path d="M258 92.9c-0.3-0.5-0.8-1-1.4-1.3 -0.6-0.3-1.3-0.5-2.1-0.5 -0.8 0-1.5 0.1-2.2 0.4s-1.2 0.7-1.7 1.2c-0.5 0.5-0.8 1.1-1.1 1.8 -0.2 0.7-0.4 1.4-0.4 2.2 0 0.8 0.1 1.5 0.4 2.2 0.2 0.7 0.6 1.2 1 1.7s1 0.9 1.6 1.2c0.6 0.3 1.4 0.4 2.2 0.4 0.9 0 1.6-0.2 2.2-0.5 0.6-0.3 1.1-0.8 1.5-1.3l1.5 1.1c-0.6 0.7-1.3 1.3-2.1 1.7 -0.8 0.4-1.9 0.6-3.1 0.6 -1.1 0-2.1-0.2-3-0.5 -0.9-0.4-1.7-0.9-2.3-1.5 -0.6-0.6-1.1-1.4-1.5-2.3 -0.4-0.9-0.5-1.8-0.5-2.9 0-1 0.2-2 0.5-2.9 0.4-0.9 0.8-1.6 1.5-2.3 0.6-0.6 1.4-1.1 2.3-1.5 0.9-0.4 1.9-0.5 3-0.5 0.9 0 1.8 0.2 2.8 0.6 0.9 0.4 1.7 1 2.3 1.8L258 92.9z" class="a"/>
	<path d="M272.7 92.9c-0.3-0.5-0.8-1-1.4-1.3 -0.6-0.3-1.3-0.5-2.1-0.5 -0.8 0-1.5 0.1-2.2 0.4s-1.2 0.7-1.7 1.2c-0.5 0.5-0.8 1.1-1.1 1.8 -0.2 0.7-0.4 1.4-0.4 2.2 0 0.8 0.1 1.5 0.4 2.2 0.2 0.7 0.6 1.2 1 1.7s1 0.9 1.6 1.2c0.6 0.3 1.4 0.4 2.2 0.4 0.9 0 1.6-0.2 2.2-0.5 0.6-0.3 1.1-0.8 1.5-1.3l1.5 1.1c-0.6 0.7-1.3 1.3-2.1 1.7 -0.8 0.4-1.9 0.6-3.1 0.6 -1.1 0-2.1-0.2-3-0.5 -0.9-0.4-1.7-0.9-2.3-1.5 -0.6-0.6-1.1-1.4-1.5-2.3 -0.4-0.9-0.5-1.8-0.5-2.9 0-1 0.2-2 0.5-2.9 0.4-0.9 0.8-1.6 1.5-2.3 0.6-0.6 1.4-1.1 2.3-1.5 0.9-0.4 1.9-0.5 3-0.5 0.9 0 1.8 0.2 2.8 0.6 0.9 0.4 1.7 1 2.3 1.8L272.7 92.9z" class="a"/>
	<path d="M289.9 96.2c0 0.1 0 0.3 0 0.4 0 0.2 0 0.3 0 0.5h-11.3c0 0.7 0.2 1.3 0.4 1.9 0.3 0.6 0.6 1.1 1.1 1.6s1 0.8 1.6 1.1 1.3 0.4 2 0.4c1 0 1.9-0.2 2.7-0.7 0.8-0.5 1.3-1 1.7-1.7l1.5 1.2c-0.8 1-1.7 1.8-2.7 2.2 -1 0.4-2 0.7-3.2 0.7 -1 0-2-0.2-2.8-0.5 -0.9-0.4-1.6-0.9-2.2-1.5s-1.1-1.4-1.5-2.3c-0.4-0.9-0.5-1.8-0.5-2.9 0-1 0.2-2 0.5-2.9 0.4-0.9 0.8-1.6 1.5-2.3s1.4-1.1 2.2-1.5c0.8-0.4 1.7-0.5 2.7-0.5 1.1 0 2 0.2 2.8 0.5 0.8 0.4 1.5 0.8 2 1.5s1 1.3 1.2 2.2C289.8 94.4 289.9 95.3 289.9 96.2zM287.9 95.6c-0.1-1.3-0.5-2.4-1.2-3.2 -0.8-0.8-1.9-1.3-3.3-1.3 -0.7 0-1.3 0.1-1.8 0.4 -0.6 0.2-1.1 0.6-1.5 1s-0.8 0.9-1 1.4c-0.3 0.5-0.4 1.1-0.4 1.7H287.9z" class="a"/>
	<path d="M301.4 93c-0.3-0.6-0.7-1-1.3-1.4 -0.6-0.4-1.3-0.5-2-0.5 -0.4 0-0.7 0-1.1 0.1 -0.4 0.1-0.7 0.2-0.9 0.4 -0.3 0.2-0.5 0.4-0.7 0.7 -0.2 0.3-0.2 0.6-0.2 1 0 0.6 0.3 1.1 0.8 1.5 0.5 0.3 1.4 0.6 2.5 0.9 1.6 0.3 2.8 0.8 3.6 1.4 0.8 0.6 1.2 1.5 1.2 2.6 0 0.8-0.2 1.4-0.5 2 -0.3 0.5-0.7 1-1.2 1.3 -0.5 0.3-1 0.6-1.7 0.7 -0.6 0.1-1.2 0.2-1.9 0.2 -1 0-2-0.2-3-0.6 -1-0.4-1.8-1.1-2.4-2l1.6-1.2c0.4 0.6 0.9 1.1 1.6 1.5 0.7 0.4 1.4 0.6 2.3 0.6 0.4 0 0.8 0 1.2-0.1 0.4-0.1 0.7-0.2 1-0.4 0.3-0.2 0.5-0.4 0.7-0.7 0.2-0.3 0.3-0.7 0.3-1.1 0-0.7-0.3-1.3-1-1.6 -0.7-0.4-1.7-0.7-3-1 -0.4-0.1-0.8-0.2-1.3-0.4 -0.5-0.1-0.9-0.4-1.3-0.6 -0.4-0.3-0.7-0.6-1-1.1 -0.3-0.4-0.4-1-0.4-1.6 0-0.7 0.1-1.3 0.4-1.8 0.3-0.5 0.6-0.9 1.1-1.2 0.5-0.3 1-0.6 1.6-0.7 0.6-0.2 1.2-0.2 1.8-0.2 1 0 1.9 0.2 2.8 0.6 0.9 0.4 1.6 1 2 1.8L301.4 93z" class="a"/>
	<path d="M314.4 93c-0.3-0.6-0.7-1-1.3-1.4 -0.6-0.4-1.3-0.5-2-0.5 -0.4 0-0.7 0-1.1 0.1 -0.4 0.1-0.7 0.2-0.9 0.4 -0.3 0.2-0.5 0.4-0.7 0.7 -0.2 0.3-0.2 0.6-0.2 1 0 0.6 0.3 1.1 0.8 1.5 0.5 0.3 1.4 0.6 2.5 0.9 1.6 0.3 2.8 0.8 3.6 1.4 0.8 0.6 1.2 1.5 1.2 2.6 0 0.8-0.2 1.4-0.5 2 -0.3 0.5-0.7 1-1.2 1.3 -0.5 0.3-1 0.6-1.7 0.7 -0.6 0.1-1.2 0.2-1.9 0.2 -1 0-2-0.2-3-0.6 -1-0.4-1.8-1.1-2.4-2l1.6-1.2c0.4 0.6 0.9 1.1 1.6 1.5 0.7 0.4 1.4 0.6 2.3 0.6 0.4 0 0.8 0 1.2-0.1 0.4-0.1 0.7-0.2 1-0.4 0.3-0.2 0.5-0.4 0.7-0.7 0.2-0.3 0.3-0.7 0.3-1.1 0-0.7-0.3-1.3-1-1.6 -0.7-0.4-1.7-0.7-3-1 -0.4-0.1-0.8-0.2-1.3-0.4 -0.5-0.1-0.9-0.4-1.3-0.6 -0.4-0.3-0.7-0.6-1-1.1 -0.3-0.4-0.4-1-0.4-1.6 0-0.7 0.1-1.3 0.4-1.8 0.3-0.5 0.6-0.9 1.1-1.2 0.5-0.3 1-0.6 1.6-0.7 0.6-0.2 1.2-0.2 1.8-0.2 1 0 1.9 0.2 2.8 0.6 0.9 0.4 1.6 1 2 1.8L314.4 93z" class="a"/>
</svg>
