<?xml version="1.0" encoding="utf-8"?>
<!-- Generator: Adobe Illustrator 16.0.4, SVG Export Plug-In . SVG Version: 6.00 Build 0)  -->
<!DOCTYPE svg PUBLIC "-//W3C//DTD SVG 1.1//EN" "http://www.w3.org/Graphics/SVG/1.1/DTD/svg11.dtd">
<svg version="1.1" id="Ebene_1" xmlns="http://www.w3.org/2000/svg" xmlns:xlink="http://www.w3.org/1999/xlink" x="0px" y="0px"
	 width="400px" height="120px" viewBox="0 0 400 120" enable-background="new 0 0 400 120" xml:space="preserve">
<g>
	<g>
		<path fill="#F49142" d="M34.5,15.632h-6.462v52.536H34.5v4.587H22.2V11.047h12.3V15.632z"/>
		<path fill="#F49142" d="M68.689,37.314c-0.695-1.066-1.738-1.958-3.127-2.676c-1.391-0.718-2.874-1.078-4.448-1.078
			c-1.715,0-3.231,0.325-4.552,0.974c-1.32,0.649-2.443,1.518-3.37,2.605c-0.928,1.089-1.633,2.353-2.119,3.788
			s-0.73,2.942-0.73,4.517c0,1.575,0.244,3.082,0.73,4.517c0.486,1.438,1.191,2.699,2.119,3.787c0.927,1.09,2.061,1.958,3.405,2.606
			c1.344,0.649,2.871,0.974,4.586,0.974c1.668,0,3.185-0.324,4.551-0.974c1.367-0.648,2.491-1.529,3.372-2.64l4.377,3.96
			c-1.389,1.622-3.127,2.883-5.21,3.787c-2.086,0.904-4.449,1.355-7.09,1.355c-2.548,0-4.898-0.417-7.053-1.251
			c-2.155-0.834-4.02-2.003-5.595-3.51c-1.576-1.504-2.814-3.323-3.718-5.454c-0.902-2.131-1.355-4.518-1.355-7.158
			c0-2.595,0.439-4.957,1.321-7.088c0.879-2.131,2.106-3.961,3.683-5.49c1.574-1.528,3.439-2.71,5.595-3.545
			c2.153-0.833,4.482-1.25,6.983-1.25c2.315,0,4.621,0.464,6.914,1.389c2.294,0.928,4.111,2.271,5.455,4.031L68.689,37.314z"/>
		<path fill="#F49142" d="M113.302,45.374c0,2.55-0.451,4.889-1.354,7.019c-0.903,2.133-2.154,3.975-3.753,5.525
			c-1.599,1.554-3.485,2.757-5.663,3.614c-2.178,0.856-4.518,1.285-7.018,1.285c-2.503,0-4.843-0.429-7.02-1.285
			c-2.179-0.857-4.054-2.061-5.629-3.614c-1.576-1.551-2.814-3.393-3.719-5.525c-0.902-2.13-1.355-4.469-1.355-7.019
			c0-2.547,0.453-4.874,1.355-6.983c0.904-2.106,2.143-3.926,3.719-5.455c1.575-1.528,3.45-2.72,5.629-3.578
			c2.177-0.856,4.517-1.286,7.02-1.286c2.5,0,4.84,0.43,7.018,1.286c2.178,0.858,4.064,2.05,5.663,3.578
			c1.599,1.529,2.85,3.349,3.753,5.455C112.851,40.5,113.302,42.827,113.302,45.374z M106.492,45.41c0-1.57-0.244-3.072-0.731-4.505
			c-0.489-1.432-1.197-2.689-2.127-3.774c-0.929-1.087-2.079-1.951-3.45-2.599s-2.941-0.972-4.706-0.972
			c-1.767,0-3.336,0.324-4.706,0.972c-1.372,0.647-2.521,1.512-3.451,2.599c-0.929,1.085-1.637,2.343-2.125,3.774
			c-0.488,1.433-0.732,2.935-0.732,4.505s0.244,3.072,0.732,4.503c0.488,1.433,1.196,2.704,2.125,3.812
			c0.93,1.108,2.079,1.985,3.451,2.633c1.37,0.647,2.939,0.971,4.706,0.971c1.765,0,3.335-0.323,4.706-0.971s2.521-1.524,3.45-2.633
			c0.93-1.107,1.638-2.379,2.127-3.812C106.248,48.482,106.492,46.98,106.492,45.41z"/>
		<path fill="#F49142" d="M148.603,56.703c-1.25,1.991-2.953,3.508-5.108,4.551c-2.153,1.043-4.412,1.563-6.774,1.563
			c-2.548,0-4.843-0.451-6.88-1.355c-2.039-0.904-3.775-2.143-5.212-3.718c-1.436-1.574-2.549-3.427-3.335-5.56
			c-0.789-2.131-1.182-4.399-1.182-6.811c0-2.408,0.393-4.666,1.182-6.773c0.786-2.108,1.91-3.95,3.37-5.525
			s3.206-2.803,5.246-3.685c2.038-0.878,4.284-1.319,6.741-1.319c2.687,0,5.025,0.568,7.02,1.703
			c1.991,1.136,3.566,2.513,4.725,4.135h0.139V9.378h6.532v52.535h-6.324v-5.21H148.603z M126.921,45.41
			c0,1.523,0.231,3.003,0.696,4.434c0.461,1.433,1.156,2.703,2.084,3.812c0.926,1.108,2.061,1.998,3.405,2.668
			c1.343,0.67,2.919,1.005,4.726,1.005c1.668,0,3.184-0.323,4.552-0.971c1.365-0.647,2.536-1.512,3.509-2.599
			c0.974-1.085,1.725-2.344,2.258-3.776c0.532-1.431,0.799-2.933,0.799-4.503s-0.267-3.072-0.799-4.505
			c-0.533-1.432-1.284-2.701-2.258-3.811c-0.973-1.107-2.144-1.984-3.509-2.632c-1.368-0.647-2.884-0.972-4.552-0.972
			c-1.807,0-3.383,0.324-4.726,0.972c-1.345,0.647-2.479,1.524-3.405,2.632c-0.928,1.109-1.623,2.379-2.084,3.811
			C127.152,42.407,126.921,43.885,126.921,45.41z"/>
		<path fill="#F49142" d="M197.247,45.166c0,0.372,0,0.741,0,1.112s-0.023,0.741-0.069,1.112h-26.199
			c0.047,1.38,0.359,2.681,0.939,3.898c0.578,1.22,1.355,2.277,2.327,3.176c0.974,0.896,2.096,1.598,3.37,2.104
			c1.273,0.506,2.629,0.76,4.064,0.76c2.225,0,4.146-0.486,5.769-1.46c1.622-0.973,2.895-2.153,3.822-3.545l4.588,3.684
			c-1.763,2.335-3.835,4.054-6.222,5.156c-2.385,1.102-5.037,1.654-7.957,1.654c-2.5,0-4.818-0.417-6.948-1.251
			c-2.131-0.834-3.961-2.003-5.489-3.51c-1.529-1.504-2.734-3.323-3.613-5.454c-0.882-2.131-1.321-4.493-1.321-7.089
			c0-2.548,0.429-4.899,1.288-7.054c0.858-2.153,2.055-3.995,3.587-5.524c1.532-1.528,3.342-2.72,5.433-3.578
			c2.089-0.856,4.339-1.286,6.754-1.286c2.414,0,4.607,0.395,6.581,1.181c1.974,0.789,3.646,1.925,5.015,3.405
			c1.37,1.484,2.425,3.279,3.169,5.387C196.875,40.152,197.247,42.525,197.247,45.166z M190.576,42.525
			c-0.047-1.296-0.267-2.512-0.66-3.647c-0.395-1.136-0.973-2.12-1.737-2.955c-0.765-0.833-1.715-1.494-2.85-1.979
			c-1.136-0.486-2.466-0.729-3.996-0.729c-1.389,0-2.699,0.243-3.926,0.729c-1.229,0.485-2.293,1.146-3.196,1.979
			c-0.904,0.835-1.646,1.819-2.224,2.955c-0.58,1.136-0.917,2.352-1.009,3.647H190.576z"/>
		<path fill="#F49142" d="M222.402,34.326h-8.756v17.112c0,1.984,0.371,3.405,1.113,4.261c0.74,0.854,1.92,1.281,3.543,1.281
			c0.602,0,1.252-0.062,1.946-0.191c0.694-0.127,1.32-0.318,1.876-0.573l0.208,5.351c-0.788,0.277-1.656,0.497-2.604,0.66
			c-0.951,0.162-1.936,0.243-2.954,0.243c-3.104,0-5.479-0.856-7.124-2.57s-2.466-4.285-2.466-7.715V34.326h-6.324v-5.352h6.324
			v-9.451h6.462v9.451h8.756V34.326z"/>
		<path fill="#F49142" d="M235.954,33.979c0.786-1.622,2.131-3.011,4.03-4.17c1.899-1.157,4.031-1.737,6.394-1.737
			c2.13,0,3.96,0.358,5.489,1.078c1.529,0.718,2.803,1.679,3.823,2.883c1.018,1.205,1.771,2.618,2.258,4.239
			c0.486,1.622,0.729,3.359,0.729,5.212v20.43h-6.533v-18.25c0-1.347-0.104-2.626-0.312-3.833c-0.208-1.207-0.59-2.273-1.146-3.203
			c-0.557-0.929-1.311-1.672-2.259-2.229c-0.95-0.558-2.188-0.837-3.718-0.837c-2.595,0-4.726,0.987-6.394,2.962
			c-1.668,1.974-2.501,4.609-2.501,7.906v17.484h-6.532V9.378h6.532v24.601H235.954z"/>
		<path fill="#F49142" d="M277.37,17.092c0,1.205-0.426,2.2-1.275,2.988c-0.851,0.788-1.873,1.182-3.068,1.182
			c-1.194,0-2.204-0.405-3.032-1.217c-0.827-0.81-1.24-1.794-1.24-2.953c0-1.204,0.413-2.213,1.24-3.023
			c0.828-0.81,1.838-1.217,3.032-1.217c1.195,0,2.218,0.407,3.068,1.217C276.944,14.879,277.37,15.888,277.37,17.092z
			 M276.327,61.913h-6.532V28.975h6.532V61.913z"/>
		<path fill="#F49142" d="M293.631,28.975c0.092,0.834,0.162,1.771,0.209,2.814c0.046,1.043,0.069,1.912,0.069,2.606h0.208
			c0.418-0.881,0.984-1.702,1.703-2.468c0.718-0.765,1.54-1.435,2.467-2.015c0.927-0.578,1.946-1.03,3.059-1.355
			c1.111-0.322,2.269-0.486,3.475-0.486c2.13,0,3.96,0.358,5.489,1.078c1.528,0.718,2.802,1.679,3.822,2.883
			c1.019,1.205,1.772,2.618,2.259,4.239c0.485,1.622,0.729,3.359,0.729,5.212v20.43h-6.532V43.639c0-1.345-0.104-2.618-0.312-3.823
			c-0.208-1.204-0.59-2.27-1.146-3.196c-0.557-0.927-1.32-1.668-2.294-2.224c-0.973-0.556-2.224-0.835-3.753-0.835
			c-2.595,0-4.714,0.985-6.358,2.954c-1.646,1.969-2.468,4.599-2.468,7.888v17.511h-6.531V36.062c0-0.879-0.023-2.015-0.07-3.405
			c-0.045-1.389-0.115-2.616-0.208-3.683H293.631z"/>
		<path fill="#F49142" d="M334.839,43.29h0.208l13.828-14.315h8.756l-15.427,14.941l16.747,17.997h-9.033l-14.871-17.094h-0.208
			v17.094h-6.532V9.378h6.532V43.29z"/>
		<path fill="#F49142" d="M364.649,68.168h6.463V15.632h-6.463v-4.585h12.301v61.708h-12.301V68.168z"/>
	</g>
	<g>
		<path fill="#F49142" d="M34.5,15.632h-6.462v52.536H34.5v4.587H22.2V11.047h12.3V15.632z"/>
		<path fill="#4C443D" d="M68.689,37.314c-0.695-1.066-1.738-1.958-3.127-2.676c-1.391-0.718-2.874-1.078-4.448-1.078
			c-1.715,0-3.231,0.325-4.552,0.974c-1.32,0.649-2.443,1.518-3.37,2.605c-0.928,1.089-1.633,2.353-2.119,3.788
			s-0.73,2.942-0.73,4.517c0,1.575,0.244,3.082,0.73,4.517c0.486,1.438,1.191,2.699,2.119,3.787c0.927,1.09,2.061,1.958,3.405,2.606
			c1.344,0.649,2.871,0.974,4.586,0.974c1.668,0,3.185-0.324,4.551-0.974c1.367-0.648,2.491-1.529,3.372-2.64l4.377,3.96
			c-1.389,1.622-3.127,2.883-5.21,3.787c-2.086,0.904-4.449,1.355-7.09,1.355c-2.548,0-4.898-0.417-7.053-1.251
			c-2.155-0.834-4.02-2.003-5.595-3.51c-1.576-1.504-2.814-3.323-3.718-5.454c-0.902-2.131-1.355-4.518-1.355-7.158
			c0-2.595,0.439-4.957,1.321-7.088c0.879-2.131,2.106-3.961,3.683-5.49c1.574-1.528,3.439-2.71,5.595-3.545
			c2.153-0.833,4.482-1.25,6.983-1.25c2.315,0,4.621,0.464,6.914,1.389c2.294,0.928,4.111,2.271,5.455,4.031L68.689,37.314z"/>
		<path fill="#4C443D" d="M113.302,45.374c0,2.55-0.451,4.889-1.354,7.019c-0.903,2.133-2.154,3.975-3.753,5.525
			c-1.599,1.554-3.485,2.757-5.663,3.614c-2.178,0.856-4.518,1.285-7.018,1.285c-2.503,0-4.843-0.429-7.02-1.285
			c-2.179-0.857-4.054-2.061-5.629-3.614c-1.576-1.551-2.814-3.393-3.719-5.525c-0.902-2.13-1.355-4.469-1.355-7.019
			c0-2.547,0.453-4.874,1.355-6.983c0.904-2.106,2.143-3.926,3.719-5.455c1.575-1.528,3.45-2.72,5.629-3.578
			c2.177-0.856,4.517-1.286,7.02-1.286c2.5,0,4.84,0.43,7.018,1.286c2.178,0.858,4.064,2.05,5.663,3.578
			c1.599,1.529,2.85,3.349,3.753,5.455C112.851,40.5,113.302,42.827,113.302,45.374z M106.492,45.41c0-1.57-0.244-3.072-0.731-4.505
			c-0.489-1.432-1.197-2.689-2.127-3.774c-0.929-1.087-2.079-1.951-3.45-2.599s-2.941-0.972-4.706-0.972
			c-1.767,0-3.336,0.324-4.706,0.972c-1.372,0.647-2.521,1.512-3.451,2.599c-0.929,1.085-1.637,2.343-2.125,3.774
			c-0.488,1.433-0.732,2.935-0.732,4.505s0.244,3.072,0.732,4.503c0.488,1.433,1.196,2.704,2.125,3.812
			c0.93,1.108,2.079,1.985,3.451,2.633c1.37,0.647,2.939,0.971,4.706,0.971c1.765,0,3.335-0.323,4.706-0.971s2.521-1.524,3.45-2.633
			c0.93-1.107,1.638-2.379,2.127-3.812C106.248,48.482,106.492,46.98,106.492,45.41z"/>
		<path fill="#4C443D" d="M148.603,56.703c-1.25,1.991-2.953,3.508-5.108,4.551c-2.153,1.043-4.412,1.563-6.774,1.563
			c-2.548,0-4.843-0.451-6.88-1.355c-2.039-0.904-3.775-2.143-5.212-3.718c-1.436-1.574-2.549-3.427-3.335-5.56
			c-0.789-2.131-1.182-4.399-1.182-6.811c0-2.408,0.393-4.666,1.182-6.773c0.786-2.108,1.91-3.95,3.37-5.525
			s3.206-2.803,5.246-3.685c2.038-0.878,4.284-1.319,6.741-1.319c2.687,0,5.025,0.568,7.02,1.703
			c1.991,1.136,3.566,2.513,4.725,4.135h0.139V9.378h6.532v52.535h-6.324v-5.21H148.603z M126.921,45.41
			c0,1.523,0.231,3.003,0.696,4.434c0.461,1.433,1.156,2.703,2.084,3.812c0.926,1.108,2.061,1.998,3.405,2.668
			c1.343,0.67,2.919,1.005,4.726,1.005c1.668,0,3.184-0.323,4.552-0.971c1.365-0.647,2.536-1.512,3.509-2.599
			c0.974-1.085,1.725-2.344,2.258-3.776c0.532-1.431,0.799-2.933,0.799-4.503s-0.267-3.072-0.799-4.505
			c-0.533-1.432-1.284-2.701-2.258-3.811c-0.973-1.107-2.144-1.984-3.509-2.632c-1.368-0.647-2.884-0.972-4.552-0.972
			c-1.807,0-3.383,0.324-4.726,0.972c-1.345,0.647-2.479,1.524-3.405,2.632c-0.928,1.109-1.623,2.379-2.084,3.811
			C127.152,42.407,126.921,43.885,126.921,45.41z"/>
		<path fill="#4C443D" d="M197.247,45.166c0,0.372,0,0.741,0,1.112s-0.023,0.741-0.069,1.112h-26.199
			c0.047,1.38,0.359,2.681,0.939,3.898c0.578,1.22,1.355,2.277,2.327,3.176c0.974,0.896,2.096,1.598,3.37,2.104
			c1.273,0.506,2.629,0.76,4.064,0.76c2.225,0,4.146-0.486,5.769-1.46c1.622-0.973,2.895-2.153,3.822-3.545l4.588,3.684
			c-1.763,2.335-3.835,4.054-6.222,5.156c-2.385,1.102-5.037,1.654-7.957,1.654c-2.5,0-4.818-0.417-6.948-1.251
			c-2.131-0.834-3.961-2.003-5.489-3.51c-1.529-1.504-2.734-3.323-3.613-5.454c-0.882-2.131-1.321-4.493-1.321-7.089
			c0-2.548,0.429-4.899,1.288-7.054c0.858-2.153,2.055-3.995,3.587-5.524c1.532-1.528,3.342-2.72,5.433-3.578
			c2.089-0.856,4.339-1.286,6.754-1.286c2.414,0,4.607,0.395,6.581,1.181c1.974,0.789,3.646,1.925,5.015,3.405
			c1.37,1.484,2.425,3.279,3.169,5.387C196.875,40.152,197.247,42.525,197.247,45.166z M190.576,42.525
			c-0.047-1.296-0.267-2.512-0.66-3.647c-0.395-1.136-0.973-2.12-1.737-2.955c-0.765-0.833-1.715-1.494-2.85-1.979
			c-1.136-0.486-2.466-0.729-3.996-0.729c-1.389,0-2.699,0.243-3.926,0.729c-1.229,0.485-2.293,1.146-3.196,1.979
			c-0.904,0.835-1.646,1.819-2.224,2.955c-0.58,1.136-0.917,2.352-1.009,3.647H190.576z"/>
		<path fill="#4C443D" d="M222.402,34.326h-8.756v17.112c0,1.984,0.371,3.405,1.113,4.261c0.74,0.854,1.92,1.281,3.543,1.281
			c0.602,0,1.252-0.062,1.946-0.191c0.694-0.127,1.32-0.318,1.876-0.573l0.208,5.351c-0.788,0.277-1.656,0.497-2.604,0.66
			c-0.951,0.162-1.936,0.243-2.954,0.243c-3.104,0-5.479-0.856-7.124-2.57s-2.466-4.285-2.466-7.715V34.326h-6.324v-5.352h6.324
			v-9.451h6.462v9.451h8.756V34.326z"/>
		<path fill="#4C443D" d="M235.954,33.979c0.786-1.622,2.131-3.011,4.03-4.17c1.899-1.157,4.031-1.737,6.394-1.737
			c2.13,0,3.96,0.358,5.489,1.078c1.529,0.718,2.803,1.679,3.823,2.883c1.018,1.205,1.771,2.618,2.258,4.239
			c0.486,1.622,0.729,3.359,0.729,5.212v20.43h-6.533v-18.25c0-1.347-0.104-2.626-0.312-3.833c-0.208-1.207-0.59-2.273-1.146-3.203
			c-0.557-0.929-1.311-1.672-2.259-2.229c-0.95-0.558-2.188-0.837-3.718-0.837c-2.595,0-4.726,0.987-6.394,2.962
			c-1.668,1.974-2.501,4.609-2.501,7.906v17.484h-6.532V9.378h6.532v24.601H235.954z"/>
		<path fill="#4C443D" d="M277.37,17.092c0,1.205-0.426,2.2-1.275,2.988c-0.851,0.788-1.873,1.182-3.068,1.182
			c-1.194,0-2.204-0.405-3.032-1.217c-0.827-0.81-1.24-1.794-1.24-2.953c0-1.204,0.413-2.213,1.24-3.023
			c0.828-0.81,1.838-1.217,3.032-1.217c1.195,0,2.218,0.407,3.068,1.217C276.944,14.879,277.37,15.888,277.37,17.092z
			 M276.327,61.913h-6.532V28.975h6.532V61.913z"/>
		<path fill="#4C443D" d="M293.631,28.975c0.092,0.834,0.162,1.771,0.209,2.814c0.046,1.043,0.069,1.912,0.069,2.606h0.208
			c0.418-0.881,0.984-1.702,1.703-2.468c0.718-0.765,1.54-1.435,2.467-2.015c0.927-0.578,1.946-1.03,3.059-1.355
			c1.111-0.322,2.269-0.486,3.475-0.486c2.13,0,3.96,0.358,5.489,1.078c1.528,0.718,2.802,1.679,3.822,2.883
			c1.019,1.205,1.772,2.618,2.259,4.239c0.485,1.622,0.729,3.359,0.729,5.212v20.43h-6.532V43.639c0-1.345-0.104-2.618-0.312-3.823
			c-0.208-1.204-0.59-2.27-1.146-3.196c-0.557-0.927-1.32-1.668-2.294-2.224c-0.973-0.556-2.224-0.835-3.753-0.835
			c-2.595,0-4.714,0.985-6.358,2.954c-1.646,1.969-2.468,4.599-2.468,7.888v17.511h-6.531V36.062c0-0.879-0.023-2.015-0.07-3.405
			c-0.045-1.389-0.115-2.616-0.208-3.683H293.631z"/>
		<path fill="#4C443D" d="M334.839,43.29h0.208l13.828-14.315h8.756l-15.427,14.941l16.747,17.997h-9.033l-14.871-17.094h-0.208
			v17.094h-6.532V9.378h6.532V43.29z"/>
		<path fill="#F49142" d="M364.649,68.168h6.463V15.632h-6.463v-4.585h12.301v61.708h-12.301V68.168z"/>
	</g>
</g>
<g>
	<path fill="#F49142" d="M98.115,101.175c-0.585,0.877-1.345,1.541-2.281,1.989c-0.936,0.448-1.901,0.673-2.896,0.673
		c-1.072,0-2.043-0.186-2.91-0.556c-0.868-0.37-1.608-0.877-2.223-1.521s-1.093-1.404-1.434-2.281s-0.512-1.823-0.512-2.837
		c0-1.014,0.171-1.959,0.512-2.837s0.819-1.638,1.434-2.281s1.354-1.15,2.223-1.521c0.867-0.37,1.838-0.556,2.91-0.556
		c0.994,0,1.96,0.229,2.896,0.687c0.937,0.458,1.696,1.136,2.281,2.033h0.059V81.374h1.989v22.112h-1.989v-2.311H98.115z
		 M87.967,96.642c0,0.761,0.116,1.477,0.351,2.15s0.57,1.258,1.009,1.755c0.439,0.497,0.98,0.888,1.624,1.17
		c0.643,0.283,1.374,0.424,2.193,0.424c0.761,0,1.462-0.142,2.105-0.424c0.644-0.282,1.199-0.667,1.667-1.155
		c0.469-0.487,0.834-1.067,1.098-1.74c0.263-0.673,0.395-1.399,0.395-2.179c0-0.779-0.132-1.506-0.395-2.179
		c-0.264-0.673-0.629-1.258-1.098-1.755c-0.468-0.498-1.023-0.887-1.667-1.17s-1.345-0.424-2.105-0.424
		c-0.819,0-1.551,0.146-2.193,0.439c-0.644,0.292-1.185,0.687-1.624,1.185c-0.438,0.497-0.774,1.082-1.009,1.755
		C88.083,95.165,87.967,95.881,87.967,96.642z"/>
	<path fill="#F49142" d="M107.913,84.533c0,0.409-0.146,0.746-0.438,1.009c-0.292,0.263-0.614,0.395-0.965,0.395
		c-0.352,0-0.673-0.132-0.966-0.395c-0.292-0.263-0.438-0.6-0.438-1.009c0-0.41,0.146-0.746,0.438-1.009
		c0.293-0.263,0.614-0.395,0.966-0.395c0.351,0,0.673,0.132,0.965,0.395C107.768,83.787,107.913,84.124,107.913,84.533z
		 M107.504,103.486h-1.989V89.798h1.989V103.486z"/>
	<path fill="#F49142" d="M113.529,106.235c0.546,0.702,1.292,1.296,2.237,1.784c0.946,0.487,1.945,0.731,2.998,0.731
		c0.976,0,1.804-0.142,2.486-0.424c0.683-0.283,1.233-0.668,1.652-1.156s0.727-1.058,0.922-1.711
		c0.194-0.653,0.292-1.35,0.292-2.091v-2.574h-0.059c-0.526,0.858-1.271,1.521-2.237,1.989c-0.965,0.468-1.945,0.702-2.939,0.702
		c-1.072,0-2.043-0.175-2.91-0.526c-0.868-0.351-1.608-0.833-2.223-1.448s-1.093-1.35-1.434-2.208
		c-0.341-0.858-0.512-1.784-0.512-2.778c0-0.975,0.171-1.891,0.512-2.75c0.341-0.858,0.819-1.608,1.434-2.252
		s1.354-1.15,2.223-1.521c0.867-0.37,1.838-0.556,2.91-0.556c0.994,0,1.97,0.234,2.925,0.702c0.955,0.468,1.706,1.141,2.252,2.019
		h0.059v-2.369h1.989v13.571c0,0.741-0.103,1.531-0.308,2.369c-0.204,0.838-0.585,1.609-1.141,2.311
		c-0.556,0.702-1.312,1.287-2.267,1.755c-0.955,0.468-2.193,0.702-3.714,0.702c-1.269,0-2.477-0.244-3.627-0.731
		c-1.151-0.488-2.136-1.161-2.954-2.019L113.529,106.235z M113.91,96.466c0,0.722,0.116,1.404,0.351,2.047s0.57,1.209,1.009,1.696
		c0.439,0.488,0.98,0.873,1.624,1.155c0.643,0.283,1.374,0.424,2.193,0.424c0.761,0,1.462-0.126,2.105-0.38
		c0.644-0.253,1.199-0.614,1.667-1.082c0.469-0.468,0.834-1.028,1.098-1.682c0.263-0.653,0.395-1.379,0.395-2.179
		c0-0.721-0.132-1.404-0.395-2.047c-0.264-0.644-0.629-1.209-1.098-1.696c-0.468-0.487-1.023-0.877-1.667-1.17
		s-1.345-0.439-2.105-0.439c-0.819,0-1.551,0.146-2.193,0.439c-0.644,0.292-1.185,0.683-1.624,1.17
		c-0.438,0.487-0.774,1.053-1.009,1.696S113.91,95.745,113.91,96.466z"/>
	<path fill="#F49142" d="M133.71,84.533c0,0.409-0.146,0.746-0.438,1.009c-0.292,0.263-0.614,0.395-0.965,0.395
		c-0.352,0-0.673-0.132-0.966-0.395c-0.292-0.263-0.438-0.6-0.438-1.009c0-0.41,0.146-0.746,0.438-1.009
		c0.293-0.263,0.614-0.395,0.966-0.395c0.351,0,0.673,0.132,0.965,0.395C133.564,83.787,133.71,84.124,133.71,84.533z
		 M133.301,103.486h-1.989V89.798h1.989V103.486z"/>
	<path fill="#F49142" d="M144.766,91.465h-3.86v7.985c0,0.507,0.048,0.926,0.146,1.257c0.098,0.332,0.239,0.59,0.425,0.775
		c0.185,0.186,0.404,0.312,0.657,0.38c0.254,0.068,0.527,0.102,0.819,0.102c0.272,0,0.561-0.039,0.863-0.117
		c0.302-0.078,0.589-0.185,0.862-0.322l0.088,1.726c-0.351,0.137-0.717,0.238-1.097,0.307c-0.38,0.068-0.795,0.102-1.243,0.102
		c-0.371,0-0.761-0.049-1.17-0.146s-0.79-0.283-1.141-0.556s-0.639-0.644-0.863-1.111c-0.224-0.468-0.336-1.083-0.336-1.843v-8.541
		h-2.837v-1.667h2.837v-3.861h1.989v3.861h3.86V91.465z"/>
	<path fill="#F49142" d="M150.293,84.533c0,0.409-0.146,0.746-0.438,1.009c-0.292,0.263-0.614,0.395-0.965,0.395
		c-0.352,0-0.673-0.132-0.966-0.395c-0.292-0.263-0.438-0.6-0.438-1.009c0-0.41,0.146-0.746,0.438-1.009
		c0.293-0.263,0.614-0.395,0.966-0.395c0.351,0,0.673,0.132,0.965,0.395C150.147,83.787,150.293,84.124,150.293,84.533z
		 M149.884,103.486h-1.989V89.798h1.989V103.486z"/>
	<path fill="#F49142" d="M164.274,91.202l-8.189,10.559h8.482v1.726h-11.115v-1.404l8.161-10.617h-7.751v-1.667h10.412V91.202z"/>
	<path fill="#F49142" d="M170.532,84.533c0,0.409-0.146,0.746-0.438,1.009c-0.292,0.263-0.614,0.395-0.965,0.395
		c-0.352,0-0.673-0.132-0.966-0.395c-0.292-0.263-0.438-0.6-0.438-1.009c0-0.41,0.146-0.746,0.438-1.009
		c0.293-0.263,0.614-0.395,0.966-0.395c0.351,0,0.673,0.132,0.965,0.395C170.387,83.787,170.532,84.124,170.532,84.533z
		 M170.123,103.486h-1.989V89.798h1.989V103.486z"/>
	<path fill="#F49142" d="M177.201,89.798c0.039,0.371,0.068,0.78,0.088,1.228c0.02,0.449,0.029,0.819,0.029,1.112h0.059
		c0.39-0.799,1.023-1.448,1.901-1.945c0.877-0.497,1.804-0.746,2.778-0.746c1.735,0,3.037,0.517,3.905,1.55
		c0.867,1.034,1.301,2.398,1.301,4.095v8.394h-1.988v-7.575c0-0.721-0.059-1.375-0.176-1.96s-0.317-1.086-0.6-1.506
		c-0.283-0.419-0.663-0.746-1.141-0.98c-0.479-0.234-1.077-0.351-1.799-0.351c-0.526,0-1.038,0.107-1.535,0.322
		c-0.497,0.215-0.941,0.541-1.331,0.98c-0.391,0.438-0.702,0.994-0.936,1.667c-0.234,0.673-0.352,1.467-0.352,2.384v7.02h-1.988
		V92.81c0-0.37-0.011-0.848-0.029-1.433c-0.021-0.585-0.05-1.111-0.088-1.579H177.201z"/>
	<path fill="#F49142" d="M193.142,106.235c0.546,0.702,1.292,1.296,2.237,1.784c0.946,0.487,1.945,0.731,2.998,0.731
		c0.976,0,1.804-0.142,2.486-0.424c0.683-0.283,1.233-0.668,1.652-1.156s0.727-1.058,0.922-1.711
		c0.194-0.653,0.292-1.35,0.292-2.091v-2.574h-0.059c-0.526,0.858-1.271,1.521-2.237,1.989c-0.965,0.468-1.945,0.702-2.939,0.702
		c-1.072,0-2.043-0.175-2.91-0.526c-0.868-0.351-1.608-0.833-2.223-1.448s-1.093-1.35-1.434-2.208
		c-0.341-0.858-0.512-1.784-0.512-2.778c0-0.975,0.171-1.891,0.512-2.75c0.341-0.858,0.819-1.608,1.434-2.252
		s1.354-1.15,2.223-1.521c0.867-0.37,1.838-0.556,2.91-0.556c0.994,0,1.97,0.234,2.925,0.702c0.955,0.468,1.706,1.141,2.252,2.019
		h0.059v-2.369h1.989v13.571c0,0.741-0.103,1.531-0.308,2.369c-0.204,0.838-0.585,1.609-1.141,2.311
		c-0.556,0.702-1.312,1.287-2.267,1.755c-0.955,0.468-2.193,0.702-3.714,0.702c-1.269,0-2.477-0.244-3.627-0.731
		c-1.151-0.488-2.136-1.161-2.954-2.019L193.142,106.235z M193.522,96.466c0,0.722,0.116,1.404,0.351,2.047s0.57,1.209,1.009,1.696
		c0.439,0.488,0.98,0.873,1.624,1.155c0.643,0.283,1.374,0.424,2.193,0.424c0.761,0,1.462-0.126,2.105-0.38
		c0.644-0.253,1.199-0.614,1.667-1.082c0.469-0.468,0.834-1.028,1.098-1.682c0.263-0.653,0.395-1.379,0.395-2.179
		c0-0.721-0.132-1.404-0.395-2.047c-0.264-0.644-0.629-1.209-1.098-1.696c-0.468-0.487-1.023-0.877-1.667-1.17
		s-1.345-0.439-2.105-0.439c-0.819,0-1.551,0.146-2.193,0.439c-0.644,0.292-1.185,0.683-1.624,1.17
		c-0.438,0.487-0.774,1.053-1.009,1.696S193.522,95.745,193.522,96.466z"/>
	<path fill="#F49142" d="M225.489,93.044c-0.292-0.565-0.736-1.028-1.331-1.39c-0.595-0.36-1.271-0.541-2.032-0.541
		c-0.352,0-0.702,0.04-1.053,0.117c-0.352,0.078-0.663,0.205-0.937,0.38c-0.273,0.176-0.492,0.4-0.658,0.673
		c-0.166,0.273-0.248,0.595-0.248,0.965c0,0.644,0.263,1.136,0.789,1.477c0.527,0.341,1.355,0.629,2.486,0.863
		c1.618,0.332,2.812,0.814,3.583,1.448c0.771,0.634,1.155,1.487,1.155,2.559c0,0.78-0.151,1.438-0.453,1.975
		c-0.303,0.536-0.697,0.975-1.185,1.316c-0.487,0.341-1.038,0.585-1.652,0.731c-0.614,0.146-1.233,0.219-1.857,0.219
		c-1.034,0-2.038-0.215-3.013-0.644c-0.976-0.429-1.774-1.102-2.398-2.018l1.579-1.17c0.352,0.604,0.868,1.111,1.551,1.521
		c0.682,0.409,1.433,0.614,2.252,0.614c0.429,0,0.838-0.039,1.229-0.117c0.39-0.078,0.731-0.214,1.023-0.41
		c0.293-0.194,0.526-0.443,0.702-0.746c0.176-0.302,0.263-0.677,0.263-1.126c0-0.721-0.346-1.262-1.038-1.624
		c-0.692-0.36-1.691-0.697-2.998-1.009c-0.409-0.098-0.844-0.22-1.301-0.366c-0.459-0.146-0.883-0.36-1.272-0.644
		c-0.391-0.282-0.712-0.638-0.966-1.067c-0.253-0.429-0.38-0.965-0.38-1.609c0-0.702,0.136-1.301,0.409-1.799
		c0.273-0.497,0.639-0.907,1.097-1.228c0.458-0.322,0.98-0.561,1.565-0.717c0.585-0.156,1.188-0.234,1.813-0.234
		c0.955,0,1.881,0.215,2.778,0.644c0.896,0.429,1.569,1.034,2.019,1.813L225.489,93.044z"/>
	<path fill="#F49142" d="M241.138,103.486c-0.04-0.37-0.069-0.78-0.088-1.229c-0.02-0.448-0.029-0.819-0.029-1.111h-0.059
		c-0.391,0.8-1.023,1.448-1.901,1.945c-0.877,0.498-1.804,0.746-2.778,0.746c-1.736,0-3.037-0.517-3.905-1.55
		c-0.867-1.033-1.301-2.398-1.301-4.095v-8.394h1.988v7.575c0,0.722,0.059,1.375,0.176,1.959s0.316,1.087,0.6,1.506
		c0.282,0.419,0.663,0.746,1.141,0.98c0.478,0.234,1.077,0.351,1.799,0.351c0.526,0,1.038-0.107,1.535-0.321
		c0.498-0.214,0.94-0.542,1.331-0.98c0.39-0.439,0.702-0.995,0.937-1.667c0.233-0.673,0.351-1.467,0.351-2.384v-7.02h1.989v10.675
		c0,0.371,0.009,0.848,0.028,1.433s0.049,1.112,0.088,1.58H241.138z"/>
	<path fill="#F49142" d="M258.043,92.927c-0.332-0.526-0.814-0.96-1.448-1.302c-0.634-0.341-1.321-0.512-2.062-0.512
		c-0.8,0-1.521,0.142-2.165,0.424s-1.194,0.672-1.652,1.17c-0.458,0.497-0.81,1.082-1.053,1.755
		c-0.244,0.672-0.365,1.399-0.365,2.179c0,0.78,0.121,1.502,0.365,2.165c0.243,0.663,0.59,1.243,1.038,1.74s0.995,0.888,1.638,1.17
		c0.644,0.283,1.365,0.424,2.165,0.424c0.877,0,1.618-0.166,2.223-0.498c0.604-0.331,1.102-0.76,1.491-1.287l1.492,1.111
		c-0.585,0.722-1.302,1.297-2.149,1.726c-0.849,0.429-1.868,0.644-3.057,0.644c-1.111,0-2.116-0.181-3.013-0.541
		c-0.897-0.361-1.663-0.863-2.296-1.506c-0.634-0.644-1.126-1.404-1.478-2.281c-0.351-0.877-0.526-1.833-0.526-2.867
		c0-1.033,0.176-1.989,0.526-2.866c0.352-0.877,0.844-1.638,1.478-2.281c0.633-0.644,1.398-1.146,2.296-1.506
		c0.896-0.36,1.901-0.541,3.013-0.541c0.916,0,1.847,0.2,2.793,0.6c0.945,0.4,1.711,0.99,2.296,1.77L258.043,92.927z"/>
	<path fill="#F49142" d="M272.667,92.927c-0.332-0.526-0.814-0.96-1.448-1.302c-0.634-0.341-1.321-0.512-2.062-0.512
		c-0.8,0-1.521,0.142-2.165,0.424s-1.194,0.672-1.652,1.17c-0.458,0.497-0.81,1.082-1.053,1.755
		c-0.244,0.672-0.365,1.399-0.365,2.179c0,0.78,0.121,1.502,0.365,2.165c0.243,0.663,0.59,1.243,1.038,1.74s0.995,0.888,1.638,1.17
		c0.644,0.283,1.365,0.424,2.165,0.424c0.877,0,1.618-0.166,2.223-0.498c0.604-0.331,1.102-0.76,1.491-1.287l1.492,1.111
		c-0.585,0.722-1.302,1.297-2.149,1.726c-0.849,0.429-1.868,0.644-3.057,0.644c-1.111,0-2.116-0.181-3.013-0.541
		c-0.897-0.361-1.663-0.863-2.296-1.506c-0.634-0.644-1.126-1.404-1.478-2.281c-0.351-0.877-0.526-1.833-0.526-2.867
		c0-1.033,0.176-1.989,0.526-2.866c0.352-0.877,0.844-1.638,1.478-2.281c0.633-0.644,1.398-1.146,2.296-1.506
		c0.896-0.36,1.901-0.541,3.013-0.541c0.916,0,1.847,0.2,2.793,0.6c0.945,0.4,1.711,0.99,2.296,1.77L272.667,92.927z"/>
	<path fill="#F49142" d="M289.894,96.232c0,0.137,0,0.283,0,0.438c0,0.156-0.01,0.322-0.029,0.498h-11.348
		c0.019,0.683,0.155,1.326,0.409,1.93c0.253,0.604,0.604,1.131,1.053,1.58s0.975,0.804,1.579,1.067s1.258,0.395,1.96,0.395
		c1.033,0,1.926-0.239,2.677-0.717c0.75-0.478,1.32-1.028,1.711-1.652l1.491,1.17c-0.818,1.034-1.721,1.774-2.705,2.223
		c-0.985,0.448-2.043,0.673-3.174,0.673c-1.014,0-1.955-0.181-2.822-0.541c-0.868-0.361-1.613-0.863-2.237-1.506
		s-1.116-1.404-1.478-2.281c-0.36-0.877-0.541-1.833-0.541-2.867c0-1.033,0.176-1.989,0.526-2.866
		c0.352-0.877,0.839-1.638,1.463-2.281s1.354-1.146,2.193-1.506c0.838-0.36,1.745-0.541,2.72-0.541c1.072,0,2.019,0.181,2.838,0.541
		c0.818,0.361,1.501,0.848,2.047,1.462s0.96,1.331,1.243,2.15C289.752,94.419,289.894,95.296,289.894,96.232z M287.876,95.589
		c-0.059-1.287-0.474-2.354-1.243-3.203c-0.771-0.848-1.867-1.272-3.291-1.272c-0.663,0-1.277,0.122-1.842,0.366
		c-0.566,0.244-1.063,0.575-1.492,0.995s-0.771,0.897-1.023,1.433c-0.254,0.536-0.4,1.097-0.438,1.682H287.876z"/>
	<path fill="#F49142" d="M301.446,93.044c-0.292-0.565-0.736-1.028-1.331-1.39c-0.595-0.36-1.271-0.541-2.032-0.541
		c-0.352,0-0.702,0.04-1.053,0.117c-0.352,0.078-0.663,0.205-0.937,0.38c-0.273,0.176-0.492,0.4-0.658,0.673
		c-0.166,0.273-0.248,0.595-0.248,0.965c0,0.644,0.263,1.136,0.789,1.477c0.527,0.341,1.355,0.629,2.486,0.863
		c1.618,0.332,2.812,0.814,3.583,1.448c0.771,0.634,1.155,1.487,1.155,2.559c0,0.78-0.151,1.438-0.453,1.975
		c-0.303,0.536-0.697,0.975-1.185,1.316c-0.487,0.341-1.038,0.585-1.652,0.731c-0.614,0.146-1.233,0.219-1.857,0.219
		c-1.034,0-2.038-0.215-3.013-0.644c-0.976-0.429-1.774-1.102-2.398-2.018l1.579-1.17c0.352,0.604,0.868,1.111,1.551,1.521
		c0.682,0.409,1.433,0.614,2.252,0.614c0.429,0,0.838-0.039,1.229-0.117c0.39-0.078,0.731-0.214,1.023-0.41
		c0.293-0.194,0.526-0.443,0.702-0.746c0.176-0.302,0.263-0.677,0.263-1.126c0-0.721-0.346-1.262-1.038-1.624
		c-0.692-0.36-1.691-0.697-2.998-1.009c-0.409-0.098-0.844-0.22-1.301-0.366c-0.459-0.146-0.883-0.36-1.272-0.644
		c-0.391-0.282-0.712-0.638-0.966-1.067c-0.253-0.429-0.38-0.965-0.38-1.609c0-0.702,0.136-1.301,0.409-1.799
		c0.273-0.497,0.639-0.907,1.097-1.228c0.458-0.322,0.98-0.561,1.565-0.717c0.585-0.156,1.188-0.234,1.813-0.234
		c0.955,0,1.881,0.215,2.778,0.644c0.896,0.429,1.569,1.034,2.019,1.813L301.446,93.044z"/>
	<path fill="#F49142" d="M314.432,93.044c-0.292-0.565-0.736-1.028-1.331-1.39c-0.595-0.36-1.271-0.541-2.032-0.541
		c-0.352,0-0.702,0.04-1.053,0.117c-0.352,0.078-0.663,0.205-0.937,0.38c-0.273,0.176-0.492,0.4-0.658,0.673
		c-0.166,0.273-0.248,0.595-0.248,0.965c0,0.644,0.263,1.136,0.789,1.477c0.527,0.341,1.355,0.629,2.486,0.863
		c1.618,0.332,2.812,0.814,3.583,1.448c0.771,0.634,1.155,1.487,1.155,2.559c0,0.78-0.151,1.438-0.453,1.975
		c-0.303,0.536-0.697,0.975-1.185,1.316c-0.487,0.341-1.038,0.585-1.652,0.731c-0.614,0.146-1.233,0.219-1.857,0.219
		c-1.034,0-2.038-0.215-3.013-0.644c-0.976-0.429-1.774-1.102-2.398-2.018l1.579-1.17c0.352,0.604,0.868,1.111,1.551,1.521
		c0.682,0.409,1.433,0.614,2.252,0.614c0.429,0,0.838-0.039,1.229-0.117c0.39-0.078,0.731-0.214,1.023-0.41
		c0.293-0.194,0.526-0.443,0.702-0.746c0.176-0.302,0.263-0.677,0.263-1.126c0-0.721-0.346-1.262-1.038-1.624
		c-0.692-0.36-1.691-0.697-2.998-1.009c-0.409-0.098-0.844-0.22-1.301-0.366c-0.459-0.146-0.883-0.36-1.272-0.644
		c-0.391-0.282-0.712-0.638-0.966-1.067c-0.253-0.429-0.38-0.965-0.38-1.609c0-0.702,0.136-1.301,0.409-1.799
		c0.273-0.497,0.639-0.907,1.097-1.228c0.458-0.322,0.98-0.561,1.565-0.717c0.585-0.156,1.188-0.234,1.813-0.234
		c0.955,0,1.881,0.215,2.778,0.644c0.896,0.429,1.569,1.034,2.019,1.813L314.432,93.044z"/>
</g>
</svg>
