<svg xmlns="http://www.w3.org/2000/svg" width="340" height="80" viewBox="0 0 340 80">
    <style>
        .left-br, .right-br { fill: #F49142; }
        .a { fill: #4C443D; }
        .o, .d, .e, .t, .h, .i, .n, .k { opacity: 0; }
        svg:hover .a { opacity: 1; }
        .c {
            transform: translateY(-3px);
            transition: transform .3s ease .4s;
        }
        svg:hover .c {
            transform: translateY(0px);
            transition: transform .3s ease;
        }
        .right-br {
            transform: translateX(-244px);
            transition: transform .5s ease-in .1s;
        }
        svg:hover .right-br {
            transform: translateX(0px);
            transition-delay: 0s;
        }
        .o { transition: opacity .3s ease .35s; }
        .d { transition: opacity .3s ease .3s; }
        .e { transition: opacity .3s ease .25s; }
        .t { transition: opacity .3s ease .2s; }
        .h { transition: opacity .3s ease .15s; }
        .i { transition: opacity .3s ease .1s; }
        .n { transition: opacity .3s ease .05s; }
        .k { transition: opacity .3s ease .0s; }
        svg:hover .o { transition: opacity .3s ease .1s; }
        svg:hover .d { transition: opacity .3s ease .15s; }
        svg:hover .e { transition: opacity .3s ease .2s; }
        svg:hover .t { transition: opacity .3s ease .25s; }
        svg:hover .h { transition: opacity .3s ease .3s; }
        svg:hover .i { transition: opacity .3s ease .35s; }
        svg:hover .n { transition: opacity .3s ease .4s; }
        svg:hover .k { transition: opacity .3s ease .45s; }
    </style>
    <path class="left-br" d="M26.7 17.7h-5.6v45.8h5.6v4H16V13.7h10.7V17.7z"/>
    <path class="a c" d="M56.5 36.6c-0.6-0.9-1.5-1.7-2.7-2.3 -1.2-0.6-2.5-0.9-3.9-0.9 -1.5 0-2.8 0.3-4 0.8 -1.2 0.6-2.1 1.3-2.9 2.3 -0.8 0.9-1.4 2.1-1.8 3.3 -0.4 1.3-0.6 2.6-0.6 3.9s0.2 2.7 0.6 3.9 1 2.4 1.8 3.3c0.8 0.9 1.8 1.7 3 2.3 1.2 0.6 2.5 0.8 4 0.8 1.5 0 2.8-0.3 4-0.8 1.2-0.6 2.2-1.3 2.9-2.3l3.8 3.5c-1.2 1.4-2.7 2.5-4.5 3.3 -1.8 0.8-3.9 1.2-6.2 1.2 -2.2 0-4.3-0.4-6.1-1.1 -1.9-0.7-3.5-1.7-4.9-3.1 -1.4-1.3-2.5-2.9-3.2-4.8 -0.8-1.9-1.2-3.9-1.2-6.2 0-2.3 0.4-4.3 1.2-6.2 0.8-1.9 1.8-3.5 3.2-4.8 1.4-1.3 3-2.4 4.9-3.1 1.9-0.7 3.9-1.1 6.1-1.1 2 0 4 0.4 6 1.2 2 0.8 3.6 2 4.8 3.5L56.5 36.6z"/>
    <path class="a o" d="M95.4 43.7c0 2.2-0.4 4.3-1.2 6.1 -0.8 1.9-1.9 3.5-3.3 4.8 -1.4 1.4-3 2.4-4.9 3.2 -1.9 0.7-3.9 1.1-6.1 1.1 -2.2 0-4.2-0.4-6.1-1.1 -1.9-0.7-3.5-1.8-4.9-3.1 -1.4-1.4-2.5-3-3.2-4.8 -0.8-1.9-1.2-3.9-1.2-6.1 0-2.2 0.4-4.3 1.2-6.1 0.8-1.8 1.9-3.4 3.2-4.8 1.4-1.3 3-2.4 4.9-3.1 1.9-0.7 3.9-1.1 6.1-1.1 2.2 0 4.2 0.4 6.1 1.1 1.9 0.7 3.5 1.8 4.9 3.1 1.4 1.3 2.5 2.9 3.3 4.8C95 39.4 95.4 41.4 95.4 43.7zM89.4 43.7c0-1.4-0.2-2.7-0.6-3.9 -0.4-1.2-1-2.3-1.9-3.3 -0.8-0.9-1.8-1.7-3-2.3 -1.2-0.6-2.6-0.8-4.1-0.8 -1.5 0-2.9 0.3-4.1 0.8 -1.2 0.6-2.2 1.3-3 2.3s-1.4 2-1.9 3.3c-0.4 1.2-0.6 2.6-0.6 3.9 0 1.4 0.2 2.7 0.6 3.9s1 2.4 1.9 3.3 1.8 1.7 3 2.3c1.2 0.6 2.6 0.8 4.1 0.8 1.5 0 2.9-0.3 4.1-0.8s2.2-1.3 3-2.3c0.8-1 1.4-2.1 1.9-3.3C89.2 46.4 89.4 45.1 89.4 43.7z"/>
    <path class="a d" d="M126.2 53.5c-1.1 1.7-2.6 3.1-4.5 4 -1.9 0.9-3.8 1.4-5.9 1.4 -2.2 0-4.2-0.4-6-1.2 -1.8-0.8-3.3-1.9-4.5-3.2 -1.3-1.4-2.2-3-2.9-4.8 -0.7-1.9-1-3.8-1-5.9 0-2.1 0.3-4.1 1-5.9 0.7-1.8 1.7-3.4 2.9-4.8 1.3-1.4 2.8-2.4 4.6-3.2 1.8-0.8 3.7-1.2 5.9-1.2 2.3 0 4.4 0.5 6.1 1.5 1.7 1 3.1 2.2 4.1 3.6h0.1V12.3h5.7v45.8h-5.5v-4.5H126.2zM107.3 43.7c0 1.3 0.2 2.6 0.6 3.9 0.4 1.2 1 2.4 1.8 3.3 0.8 1 1.8 1.7 3 2.3 1.2 0.6 2.5 0.9 4.1 0.9 1.5 0 2.8-0.3 4-0.8 1.2-0.6 2.2-1.3 3.1-2.3s1.5-2 2-3.3c0.5-1.2 0.7-2.6 0.7-3.9 0-1.4-0.2-2.7-0.7-3.9 -0.5-1.2-1.1-2.4-2-3.3 -0.8-1-1.9-1.7-3.1-2.3 -1.2-0.6-2.5-0.8-4-0.8 -1.6 0-2.9 0.3-4.1 0.8 -1.2 0.6-2.2 1.3-3 2.3 -0.8 1-1.4 2.1-1.8 3.3C107.5 41.1 107.3 42.4 107.3 43.7z"/>
    <path class="a e" d="M168.6 43.5c0 0.3 0 0.6 0 1 0 0.3 0 0.6-0.1 1h-22.8c0 1.2 0.3 2.3 0.8 3.4 0.5 1.1 1.2 2 2 2.8 0.8 0.8 1.8 1.4 2.9 1.8 1.1 0.4 2.3 0.7 3.5 0.7 1.9 0 3.6-0.4 5-1.3 1.4-0.8 2.5-1.9 3.3-3.1l4 3.2c-1.5 2-3.3 3.5-5.4 4.5 -2.1 1-4.4 1.4-6.9 1.4 -2.2 0-4.2-0.4-6.1-1.1 -1.9-0.7-3.5-1.7-4.8-3.1s-2.4-2.9-3.1-4.8c-0.8-1.9-1.2-3.9-1.2-6.2 0-2.2 0.4-4.3 1.1-6.1 0.7-1.9 1.8-3.5 3.1-4.8 1.3-1.3 2.9-2.4 4.7-3.1 1.8-0.7 3.8-1.1 5.9-1.1s4 0.3 5.7 1c1.7 0.7 3.2 1.7 4.4 3 1.2 1.3 2.1 2.9 2.8 4.7C168.2 39.1 168.6 41.2 168.6 43.5zM162.8 41.2c0-1.1-0.2-2.2-0.6-3.2 -0.3-1-0.8-1.8-1.5-2.6 -0.7-0.7-1.5-1.3-2.5-1.7 -1-0.4-2.1-0.6-3.5-0.6 -1.2 0-2.4 0.2-3.4 0.6 -1.1 0.4-2 1-2.8 1.7s-1.4 1.6-1.9 2.6c-0.5 1-0.8 2.1-0.9 3.2H162.8z"/>
    <path class="a t" d="M190.5 34h-7.6v14.9c0 1.7 0.3 3 1 3.7 0.6 0.7 1.7 1.1 3.1 1.1 0.5 0 1.1-0.1 1.7-0.2s1.2-0.3 1.6-0.5l0.2 4.7c-0.7 0.2-1.4 0.4-2.3 0.6 -0.8 0.1-1.7 0.2-2.6 0.2 -2.7 0-4.8-0.7-6.2-2.2 -1.4-1.5-2.1-3.7-2.1-6.7V34h-5.5v-4.7h5.5v-8.2h5.6v8.2h7.6V34z"/>
    <path class="a h" d="M202.3 33.7c0.7-1.4 1.9-2.6 3.5-3.6 1.7-1 3.5-1.5 5.6-1.5 1.9 0 3.5 0.3 4.8 0.9 1.3 0.6 2.4 1.5 3.3 2.5 0.9 1.1 1.5 2.3 2 3.7 0.4 1.4 0.6 2.9 0.6 4.5v17.8h-5.7V42.2c0-1.2-0.1-2.3-0.3-3.3s-0.5-2-1-2.8c-0.5-0.8-1.1-1.5-2-1.9 -0.8-0.5-1.9-0.7-3.2-0.7 -2.3 0-4.1 0.9-5.6 2.6 -1.5 1.7-2.2 4-2.2 6.9v15.2h-5.7V12.3h5.7v21.4H202.3z"/>
    <path class="a i" d="M238.4 19c0 1.1-0.4 1.9-1.1 2.6 -0.7 0.7-1.6 1-2.7 1 -1 0-1.9-0.4-2.6-1.1 -0.7-0.7-1.1-1.6-1.1-2.6 0-1 0.4-1.9 1.1-2.6 0.7-0.7 1.6-1.1 2.6-1.1 1 0 1.9 0.4 2.7 1.1C238.1 17.1 238.4 18 238.4 19zM237.5 58.1h-5.7V29.4h5.7V58.1z"/>
    <path class="a n" d="M252.6 29.4c0.1 0.7 0.1 1.5 0.2 2.5 0 0.9 0.1 1.7 0.1 2.3h0.2c0.4-0.8 0.9-1.5 1.5-2.2s1.3-1.3 2.2-1.8c0.8-0.5 1.7-0.9 2.7-1.2 1-0.3 2-0.4 3-0.4 1.9 0 3.5 0.3 4.8 0.9 1.3 0.6 2.4 1.5 3.3 2.5 0.9 1.1 1.5 2.3 2 3.7 0.4 1.4 0.6 2.9 0.6 4.5v17.8h-5.7V42.1c0-1.2-0.1-2.3-0.3-3.3 -0.2-1-0.5-2-1-2.8 -0.5-0.8-1.2-1.5-2-1.9 -0.8-0.5-1.9-0.7-3.3-0.7 -2.3 0-4.1 0.9-5.5 2.6 -1.4 1.7-2.2 4-2.2 6.9v15.3h-5.7v-22.5c0-0.8 0-1.8-0.1-3 0-1.2-0.1-2.3-0.2-3.2H252.6z"/>
    <path class="a k" d="M288.5 41.8h0.2l12.1-12.5h7.6l-13.4 13 14.6 15.7h-7.9l-13-14.9h-0.2v14.9h-5.7V12.3h5.7V41.8z"/>
    <path class="right-br" d="M314.5 63.5h5.6V17.7h-5.6v-4h10.7v53.8h-10.7V63.5z"/>
    <a xmlns="http://www.w3.org/2000/svg" id="anchor" xlink:href="/" xmlns:xlink="http://www.w3.org/1999/xlink" target="_top">
        <rect x="0" y="0" width="100%" height="100%" fill-opacity="0"/>
    </a>
</svg>
