<?xml version="1.0" encoding="utf-8"?>
<!DOCTYPE svg PUBLIC "-//W3C//DTD SVG 1.1//EN" "http://www.w3.org/Graphics/SVG/1.1/DTD/svg11.dtd">
<svg version="1.1" id="Ebene_1" xmlns="http://www.w3.org/2000/svg" xmlns:xlink="http://www.w3.org/1999/xlink" x="0px" y="0px"
	 width="160px" height="160px" viewBox="-70 -70 300 300" enable-background="new 0 0 160 160" xml:space="preserve">
<g>
	<circle fill="none" stroke="#4E4E4E" stroke-width="3" stroke-miterlimit="10" cx="78.923" cy="80.331" r="67.065"/>
	<path fill="none" stroke="#F48A36" stroke-width="3" stroke-linecap="round" stroke-linejoin="round" stroke-miterlimit="10" d="
		M96.826,75.547c0,0.074-0.008,0.126-0.023,0.155c-0.945,3.963-2.926,7.174-5.941,9.635c-3.016,2.46-6.547,3.692-10.598,3.692
		c-2.158,0-4.246-0.408-6.264-1.221c-2.018-0.813-3.818-1.974-5.398-3.481l-2.861,2.86c-0.281,0.282-0.613,0.422-0.998,0.422
		s-0.717-0.14-0.996-0.422c-0.281-0.282-0.422-0.612-0.422-0.997v-9.934c0-0.385,0.141-0.717,0.422-0.997
		c0.279-0.281,0.611-0.422,0.996-0.422h9.934c0.385,0,0.717,0.141,0.998,0.422c0.281,0.28,0.422,0.612,0.422,0.997
		s-0.141,0.717-0.422,0.998l-3.037,3.037c1.049,0.976,2.238,1.73,3.568,2.262c1.332,0.532,2.713,0.798,4.146,0.798
		c1.98,0,3.828-0.479,5.543-1.441c1.715-0.96,3.09-2.283,4.125-3.969c0.162-0.25,0.555-1.115,1.176-2.594
		c0.117-0.34,0.34-0.51,0.664-0.51h4.258c0.191,0,0.357,0.07,0.498,0.211C96.758,75.189,96.826,75.355,96.826,75.547z M97.381,57.81
		v9.933c0,0.385-0.141,0.718-0.422,0.998c-0.279,0.281-0.613,0.422-0.998,0.422h-9.932c-0.387,0-0.717-0.141-0.998-0.422
		c-0.281-0.28-0.422-0.613-0.422-0.998s0.141-0.717,0.422-0.997l3.061-3.06c-2.189-2.025-4.77-3.038-7.74-3.038
		c-1.98,0-3.828,0.48-5.543,1.44c-1.713,0.962-3.09,2.285-4.123,3.97c-0.164,0.251-0.555,1.116-1.176,2.594
		c-0.117,0.341-0.34,0.511-0.664,0.511h-4.412c-0.193,0-0.359-0.07-0.5-0.211s-0.211-0.307-0.211-0.499v-0.155
		c0.961-3.961,2.957-7.172,5.986-9.634c3.031-2.462,6.578-3.692,10.643-3.692c2.158,0,4.258,0.41,6.299,1.23
		c2.039,0.82,3.85,1.978,5.432,3.471l2.883-2.86c0.279-0.28,0.613-0.421,0.996-0.421c0.385,0,0.719,0.141,0.998,0.421
		C97.24,57.092,97.381,57.426,97.381,57.81z"/>
	<path fill="none" stroke="#4E4E4E" stroke-width="3" stroke-linecap="round" stroke-linejoin="round" stroke-miterlimit="10" d="
		M37.4,99.25"/>
	<path fill="none" stroke="#4E4E4E" stroke-width="3" stroke-linecap="round" stroke-linejoin="round" stroke-miterlimit="10" d="
		M37.4,95.25"/>
	<g>
		<path fill="none" stroke="#4E4E4E" stroke-width="3" stroke-linecap="round" stroke-linejoin="round" stroke-miterlimit="10" d="
			M120.5,98V49.75c0-3.313-1.787-6.25-5.1-6.25h-72c-3.314,0-6.9,2.937-6.9,6.25V98"/>
		<path fill="none" stroke="#4E4E4E" stroke-width="3" stroke-linecap="round" stroke-linejoin="round" stroke-miterlimit="10" d="
			M94.4,99.5c0,1-0.896,2-2,2h-25c-1.105,0-2-1-2-2h-42l0,0c0,0,2.686,6,6,6h100c3.312,0,6-2,6-6l0,0H94.4z"/>

			<rect x="41.5" y="48.5" fill="none" stroke="#4E4E4E" stroke-width="3" stroke-linecap="round" stroke-linejoin="round" stroke-miterlimit="10" width="74" height="46"/>
	</g>
</g>
</svg>
