<?xml version="1.0" encoding="utf-8"?>
<!DOCTYPE svg PUBLIC "-//W3C//DTD SVG 1.1//EN" "http://www.w3.org/Graphics/SVG/1.1/DTD/svg11.dtd">
<svg version="1.1" id="Ebene_1" xmlns="http://www.w3.org/2000/svg" xmlns:xlink="http://www.w3.org/1999/xlink" x="0px" y="0px"
	 width="160px" height="160px" viewBox="-70 -70 300 300" enable-background="new -70 -70 300 300" xml:space="preserve">
<g>
	<g>
		<g>
			<circle fill="none" stroke="#4E4E4E" stroke-width="3" stroke-miterlimit="10" cx="79.677" cy="159.081" r="67.065"/>

				<path fill="#FFFFFF" stroke="#4E4E4E" stroke-width="3" stroke-linecap="round" stroke-linejoin="round" stroke-miterlimit="10" d="
				M90.971,137h-55.51c-3.482,0-6.461,2.03-6.461,5.515v32.8c0,3.484,2.979,6.686,6.461,6.686H38v13.5L52.492,182h38.479
				c3.483,0,6.029-3.201,6.029-6.686v-32.8C97,139.03,94.454,137,90.971,137z"/>

				<path fill="#FFFFFF" stroke="#4E4E4E" stroke-width="3" stroke-linecap="round" stroke-linejoin="round" stroke-miterlimit="10" d="
				M66.338,126h55.508c3.484,0,6.154,2.03,6.154,5.515v32.8c0,3.484-2.67,6.686-6.154,6.686H119v13.5L104.814,171H66.338
				c-3.484,0-6.338-3.201-6.338-6.686v-32.8C60,128.03,62.854,126,66.338,126z"/>
			<g>
				<path fill="#F48A36" d="M44.574,164.656c0.02-1.165,0.152-2.086,0.397-2.762s0.745-1.425,1.501-2.248l1.927-1.982
					c0.824-0.93,1.235-1.929,1.235-2.995c0-1.027-0.27-1.833-0.809-2.415s-1.324-0.874-2.354-0.874
					c-1.001,0-1.805,0.266-2.414,0.795c-0.607,0.529-0.912,1.241-0.912,2.134h-2.721c0.02-1.59,0.586-2.872,1.699-3.848
					s2.562-1.464,4.348-1.464c1.854,0,3.297,0.497,4.332,1.491c1.035,0.993,1.553,2.357,1.553,4.091
					c0,1.714-0.795,3.403-2.384,5.067l-1.604,1.587c-0.716,0.793-1.074,1.935-1.074,3.423H44.574z M44.457,169.33
					c0-0.445,0.135-0.819,0.404-1.121c0.27-0.303,0.67-0.453,1.199-0.453s0.932,0.15,1.206,0.453
					c0.274,0.302,0.412,0.676,0.412,1.121s-0.138,0.814-0.412,1.106s-0.677,0.438-1.206,0.438s-0.93-0.146-1.199-0.438
					S44.457,169.775,44.457,169.33z"/>
			</g>
			<g>
				<path fill="#F48A36" d="M74.025,150.469c0-0.75,0.223-1.375,0.668-1.875s1.113-0.75,2.004-0.75s1.566,0.25,2.027,0.75
					s0.691,1.125,0.691,1.875c0,0.719-0.23,1.32-0.691,1.805S77.588,153,76.697,153s-1.559-0.242-2.004-0.727
					S74.025,151.188,74.025,150.469z"/>
				<path fill="#F48A36" d="M91.459,150.469c0-0.75,0.223-1.375,0.668-1.875s1.113-0.75,2.004-0.75s1.566,0.25,2.027,0.75
					s0.691,1.125,0.691,1.875c0,0.719-0.23,1.32-0.691,1.805S95.021,153,94.131,153s-1.559-0.242-2.004-0.727
					S91.459,151.188,91.459,150.469z"/>
				<path fill="#F48A36" d="M108.892,150.469c0-0.75,0.223-1.375,0.668-1.875s1.113-0.75,2.004-0.75s1.566,0.25,2.027,0.75
					s0.691,1.125,0.691,1.875c0,0.719-0.23,1.32-0.691,1.805S112.454,153,111.563,153s-1.559-0.242-2.004-0.727
					S108.892,151.188,108.892,150.469z"/>
			</g>
		</g>
		<g>
			<circle fill="none" stroke="#4E4E4E" stroke-width="3" stroke-miterlimit="10" cx="79.677" cy="0.081" r="67.065"/>
			<path fill="none" stroke="#4E4E4E" stroke-width="3" stroke-linecap="round" stroke-linejoin="round" stroke-miterlimit="10" d="
				M89.518-3.708v8.003c0,0.287-0.102,0.569-0.303,0.842c-0.203,0.274-0.434,0.426-0.691,0.454l-6.705,1.038
				c-0.316,1.011-0.777,2.106-1.383,3.288c0.979,1.384,2.277,3.042,3.893,4.975c0.201,0.287,0.303,0.577,0.303,0.864
				c0,0.348-0.102,0.621-0.303,0.822c-0.664,0.865-1.854,2.155-3.57,3.871c-1.715,1.716-2.848,2.573-3.395,2.573
				c-0.316,0-0.619-0.101-0.908-0.303l-4.975-3.892c-1.066,0.547-2.178,0.993-3.33,1.34c-0.318,3.113-0.65,5.35-0.994,6.704
				c-0.203,0.692-0.635,1.039-1.299,1.039h-8.045c-0.316,0-0.605-0.108-0.865-0.325s-0.402-0.468-0.432-0.757l-0.994-6.618
				c-0.982-0.288-2.062-0.734-3.244-1.34l-5.105,3.849c-0.201,0.202-0.49,0.303-0.865,0.303c-0.316,0-0.619-0.115-0.908-0.347
				c-4.152-3.834-6.227-6.141-6.227-6.92c0-0.259,0.1-0.533,0.303-0.821c0.287-0.403,0.877-1.169,1.771-2.293
				s1.572-2.004,2.033-2.638c-0.662-1.269-1.168-2.451-1.514-3.547l-6.574-1.039c-0.289-0.028-0.533-0.164-0.736-0.41
				c-0.201-0.244-0.303-0.527-0.303-0.844v-8.002c0-0.288,0.102-0.568,0.303-0.844c0.203-0.273,0.434-0.426,0.693-0.454l6.703-1.037
				c0.316-1.01,0.779-2.105,1.385-3.288c-0.98-1.383-2.279-3.042-3.893-4.974c-0.203-0.317-0.303-0.605-0.303-0.866
				c0-0.345,0.1-0.633,0.303-0.863c0.633-0.866,1.816-2.148,3.547-3.852c1.73-1.699,2.869-2.551,3.416-2.551
				c0.316,0,0.619,0.101,0.908,0.303l4.975,3.893c0.98-0.519,2.09-0.979,3.332-1.385c0.316-3.113,0.646-5.334,0.994-6.66
				c0.201-0.692,0.635-1.038,1.297-1.038h8.045c0.316,0,0.605,0.108,0.865,0.323c0.26,0.218,0.404,0.471,0.434,0.758l0.994,6.617
				c0.98,0.289,2.061,0.737,3.244,1.343l5.104-3.851c0.232-0.202,0.52-0.303,0.865-0.303c0.316,0,0.619,0.116,0.908,0.346
				c4.152,3.836,6.229,6.142,6.229,6.92c0,0.261-0.1,0.535-0.303,0.824c-0.346,0.46-0.951,1.238-1.816,2.333
				c-0.865,1.098-1.514,1.962-1.945,2.596C81.098-8.163,81.588-6.98,81.904-6l6.574,0.994c0.289,0.059,0.533,0.21,0.736,0.454
				C89.416-4.306,89.518-4.025,89.518-3.708z"/>
			<path fill="none" stroke="#4E4E4E" stroke-width="3" stroke-linecap="round" stroke-linejoin="round" stroke-miterlimit="10" d="
				M69.664,8.058c2.162-2.164,3.244-4.772,3.244-7.83c0-3.056-1.082-5.666-3.244-7.829c-2.164-2.162-4.773-3.242-7.83-3.242
				c-3.055,0-5.666,1.08-7.826,3.242c-2.164,2.163-3.244,4.773-3.244,7.829c0,3.058,1.08,5.666,3.244,7.83
				c2.16,2.162,4.771,3.243,7.826,3.243C64.891,11.301,67.5,10.22,69.664,8.058z"/>
			<path fill="none" stroke="#4E4E4E" stroke-width="3" stroke-linecap="round" stroke-linejoin="round" stroke-miterlimit="10" d="
				M118.363,17.363l1.107,5.953c0.084,0.455-1.949,1.286-6.092,2.496c-0.199,0.829-0.488,1.645-0.865,2.447
				c2.041,2.938,3.127,4.758,3.258,5.466c0.021,0.115-0.018,0.226-0.115,0.329c-3.084,2.656-4.654,3.99-4.711,4.001
				c-0.227,0.042-1.002-0.503-2.328-1.636c-1.326-1.131-2.24-1.959-2.748-2.479c-0.557,0.16-0.977,0.267-1.262,0.32
				c-0.283,0.053-0.713,0.104-1.291,0.153c-0.285,0.669-0.844,1.769-1.674,3.301c-0.828,1.533-1.355,2.32-1.584,2.364
				c-0.057,0.01-2-0.672-5.834-2.042c-0.129-0.062-0.205-0.152-0.225-0.266c-0.133-0.708,0.227-2.798,1.078-6.271
				c-0.643-0.614-1.205-1.273-1.686-1.975c-4.305,0.358-6.498,0.313-6.582-0.143l-1.107-5.952c-0.082-0.454,1.947-1.288,6.094-2.496
				c0.213-0.892,0.502-1.706,0.863-2.447c-2.041-2.936-3.127-4.758-3.258-5.467c-0.021-0.113,0.016-0.223,0.113-0.329
				c0.102-0.079,0.547-0.452,1.33-1.127c0.783-0.674,1.531-1.312,2.242-1.91c0.707-0.603,1.092-0.908,1.146-0.918
				c0.229-0.043,1.002,0.495,2.324,1.612c1.324,1.117,2.238,1.938,2.746,2.46c0.557-0.161,0.975-0.27,1.26-0.321
				c0.283-0.054,0.713-0.104,1.291-0.153c1.072-2.279,2.082-4.109,3.029-5.488l0.238-0.133c0.113-0.021,2.057,0.644,5.826,1.997
				c0.127,0.065,0.205,0.152,0.225,0.267c0.131,0.708-0.227,2.799-1.078,6.271c0.604,0.562,1.166,1.22,1.688,1.974
				C116.084,16.862,118.281,16.91,118.363,17.363z"/>
			<path fill="none" stroke="#F48A36" stroke-width="3" stroke-miterlimit="10" d="M113.426-25.426
				c-0.201-0.895-0.477-1.716-0.824-2.464c2.09-2.9,3.205-4.703,3.348-5.411c0.023-0.113-0.014-0.224-0.109-0.33
				c-2.988-2.667-4.541-4.012-4.652-4.035l-0.271,0.034c-1.395,0.924-3.016,2.242-4.865,3.956c-0.553-0.172-0.971-0.286-1.254-0.344
				s-0.711-0.115-1.289-0.172c-0.275-0.674-0.814-1.777-1.623-3.309c-0.807-1.533-1.322-2.322-1.551-2.368
				c-0.055-0.011-0.525,0.128-1.408,0.421c-0.883,0.292-1.814,0.602-2.793,0.934c-0.98,0.329-1.533,0.513-1.658,0.547
				c-0.129,0.061-0.205,0.148-0.227,0.262c-0.145,0.707,0.18,2.803,0.973,6.288c-0.611,0.553-1.186,1.203-1.717,1.948
				c-4.299-0.432-6.492-0.42-6.584,0.031l-1.205,5.934c-0.09,0.451,1.926,1.318,6.051,2.597c0.184,0.832,0.459,1.653,0.822,2.462
				c-2.088,2.901-3.203,4.704-3.348,5.412c-0.023,0.113,0.014,0.221,0.107,0.33c3.043,2.706,4.59,4.064,4.646,4.076
				c0.229,0.047,1.012-0.485,2.354-1.596c1.346-1.111,2.275-1.924,2.789-2.438c0.555,0.174,0.973,0.287,1.256,0.346
				c0.283,0.057,0.713,0.115,1.289,0.171c0.275,0.674,0.814,1.784,1.619,3.331c0.803,1.547,1.32,2.342,1.545,2.389
				c0.057,0.011,2.012-0.637,5.867-1.943c0.131-0.063,0.207-0.148,0.23-0.262c0.143-0.707-0.182-2.803-0.975-6.29
				c0.65-0.602,1.227-1.251,1.719-1.945c4.295,0.431,6.492,0.419,6.584-0.032l1.205-5.934
				C119.568-23.281,117.549-24.148,113.426-25.426z M106.506-19.254c-1.082,1.082-2.387,1.621-3.916,1.621
				c-1.527,0-2.832-0.539-3.914-1.621c-1.082-1.081-1.623-2.385-1.623-3.913c0-1.5,0.549-2.798,1.646-3.894
				c1.094-1.096,2.391-1.644,3.891-1.644s2.799,0.548,3.895,1.644s1.643,2.394,1.643,3.894
				C108.127-21.639,107.586-20.335,106.506-19.254z"/>
			<path fill="none" stroke="#4E4E4E" stroke-width="3" stroke-linecap="round" stroke-linejoin="round" stroke-miterlimit="10" d="
				M108.127,23.373c0-1.498-0.547-2.796-1.643-3.892c-1.096-1.095-2.395-1.644-3.895-1.644s-2.797,0.549-3.891,1.644
				c-1.098,1.096-1.646,2.394-1.646,3.892c0,1.529,0.541,2.834,1.623,3.916c1.082,1.08,2.387,1.622,3.914,1.622
				c1.529,0,2.834-0.542,3.916-1.622C107.586,26.207,108.127,24.902,108.127,23.373z"/>
		</g>
		<g>
			<g>
				<g>
					<path fill="none" stroke="#4E4E4E" stroke-width="3" stroke-linecap="round" stroke-miterlimit="10" d="M164.775,127.258
						c8.094-14.239,12.718-30.708,12.718-48.258c0-22.836-7.826-43.844-20.942-60.488"/>
					<g>
						<polygon fill="#4E4E4E" points="175.034,130.311 156.342,139.748 157.512,118.842 						"/>
					</g>
				</g>
			</g>
			<g>
				<g>
					<path fill="none" stroke="#4E4E4E" stroke-width="3" stroke-linecap="round" stroke-miterlimit="10" d="M-5.587,31.03
						C-13.579,45.203-18.139,61.569-18.139,79c0,22.955,7.911,44.062,21.151,60.748"/>
					<g>
						<polygon fill="#4E4E4E" points="-15.855,28.015 2.803,18.512 1.708,39.422 						"/>
					</g>
				</g>
			</g>
		</g>
	</g>
</g>
</svg>
