<?xml version="1.0" encoding="utf-8"?>
<!DOCTYPE svg PUBLIC "-//W3C//DTD SVG 1.1//EN" "http://www.w3.org/Graphics/SVG/1.1/DTD/svg11.dtd">
<svg version="1.1" id="Ebene_1" xmlns="http://www.w3.org/2000/svg" xmlns:xlink="http://www.w3.org/1999/xlink" x="0px" y="0px"
	 width="160px" height="160px" viewBox="-70 -70 300 300" enable-background="new 0 0 160 160" xml:space="preserve">
<g>
	<polyline fill="none" stroke="#F48A36" stroke-width="3" stroke-linecap="round" stroke-linejoin="round" points="72.547,95.75
		65.525,62.875 69.234,57.375 74.275,68.375 78.924,57.375 83.15,68.75 87.15,57.375 91.275,62.875 84.252,95.75 	"/>
	<circle fill="none" stroke="#4E4E4E" stroke-width="3" stroke-miterlimit="10" cx="78.923" cy="80.331" r="67.065"/>
	<g>
		<g>
			<path fill="#4E4E4E" d="M78.924,35.208c3.606,0,7.2,0.627,10.681,1.863c3.501,1.244,6.677,2.966,9.438,5.115
				c2.672,2.084,4.863,4.748,6.514,7.917c1.626,3.126,2.45,6.55,2.45,10.176c0,5.752-1.855,10.584-5.665,14.764
				c-1.93,2.103-3.555,4-4.828,5.642c-1.338,1.724-2.689,3.889-4.018,6.435c-1.435,2.752-2.263,5.404-2.461,7.884l-0.149,1.861
				l1.604,0.955c1.051,0.626,1.479,1.368,1.479,2.562c0,0.791-0.236,1.398-0.768,1.972l-1.886,2.038l1.886,2.038
				c0.531,0.573,0.768,1.182,0.768,1.973c0,1.153-0.418,1.893-1.443,2.554l-2.376,1.531l1.388,2.463
				c0.288,0.512,0.428,0.993,0.428,1.473c0,1.264-0.424,1.77-0.839,2.1c-0.777,0.616-1.756,0.916-2.991,0.916h-1.931l-0.8,1.758
				c-0.6,1.318-1.472,2.337-2.663,3.112c-1.187,0.77-2.435,1.145-3.817,1.145c-1.383,0-2.631-0.374-3.816-1.145
				c-1.192-0.774-2.064-1.793-2.665-3.112l-0.8-1.758h-1.931c-1.235,0-2.215-0.3-2.992-0.916c-0.415-0.329-0.838-0.836-0.838-2.1
				c0-0.48,0.14-0.962,0.427-1.471l1.392-2.465l-2.38-1.532c-1.026-0.66-1.444-1.4-1.444-2.553c0-0.791,0.237-1.398,0.767-1.971
				l1.892-2.04l-1.892-2.04c-0.53-0.572-0.767-1.18-0.767-1.97c0-1.192,0.429-1.935,1.481-2.562l1.604-0.956l-0.15-1.861
				c-0.2-2.483-1.027-5.136-2.46-7.883c-1.33-2.548-2.682-4.712-4.019-6.436c-1.279-1.647-2.903-3.545-4.82-5.633
				c-3.816-4.186-5.671-9.018-5.671-14.772c0-3.63,0.824-7.054,2.448-10.175c1.65-3.17,3.843-5.834,6.515-7.917
				c2.76-2.15,5.935-3.872,9.438-5.116C71.722,35.835,75.315,35.208,78.924,35.208 M78.924,32.208c-3.97,0-7.865,0.679-11.686,2.036
				c-3.823,1.358-7.249,3.217-10.277,5.576c-3.029,2.361-5.473,5.327-7.332,8.898c-1.858,3.571-2.787,7.425-2.787,11.561
				c0,6.476,2.15,12.072,6.454,16.793c1.879,2.047,3.435,3.864,4.668,5.452c1.231,1.587,2.475,3.581,3.729,5.983
				c1.253,2.402,1.962,4.647,2.13,6.735c-1.963,1.17-2.945,2.883-2.945,5.139c0,1.546,0.521,2.882,1.567,4.01
				c-1.046,1.128-1.567,2.466-1.567,4.011c0,2.173,0.939,3.864,2.82,5.075c-0.543,0.962-0.814,1.943-0.814,2.945
				c0,1.922,0.658,3.405,1.973,4.449c1.316,1.043,2.936,1.566,4.857,1.566c0.836,1.837,2.088,3.299,3.76,4.386
				c1.67,1.085,3.486,1.629,5.451,1.629c1.963,0,3.78-0.544,5.451-1.629c1.67-1.087,2.924-2.549,3.76-4.386
				c1.92,0,3.541-0.523,4.855-1.566c1.316-1.044,1.975-2.527,1.975-4.449c0-1.002-0.272-1.983-0.814-2.945
				c1.879-1.211,2.818-2.902,2.818-5.075c0-1.545-0.521-2.883-1.565-4.011c1.044-1.128,1.565-2.464,1.565-4.01
				c0-2.256-0.98-3.969-2.944-5.139c0.167-2.088,0.878-4.333,2.131-6.735s2.496-4.396,3.728-5.983
				c1.232-1.588,2.789-3.405,4.668-5.452c4.303-4.721,6.455-10.317,6.455-16.793c0-4.136-0.932-7.989-2.789-11.561
				c-1.859-3.571-4.303-6.537-7.33-8.898c-3.03-2.359-6.455-4.218-10.277-5.576C86.787,32.887,82.892,32.208,78.924,32.208
				L78.924,32.208z"/>
		</g>
	</g>
	<line fill="none" stroke="#4E4E4E" stroke-width="3" x1="64" y1="95.5" x2="92" y2="95.5"/>
	<line fill="none" stroke="#4E4E4E" stroke-width="3" x1="63" y1="104.5" x2="93" y2="104.5"/>
	<line fill="none" stroke="#4E4E4E" stroke-width="3" x1="64" y1="112.5" x2="92" y2="112.5"/>
	<line fill="none" stroke="#4E4E4E" stroke-width="3" x1="67" y1="120.5" x2="89" y2="120.5"/>
</g>
</svg>
