<?xml version="1.0" encoding="utf-8"?>
<!-- Generator: Adobe Illustrator 16.0.4, SVG Export Plug-In . SVG Version: 6.00 Build 0)  -->
<!DOCTYPE svg PUBLIC "-//W3C//DTD SVG 1.1//EN" "http://www.w3.org/Graphics/SVG/1.1/DTD/svg11.dtd">
<svg version="1.1" id="ic-portfolio" xmlns="http://www.w3.org/2000/svg" xmlns:xlink="http://www.w3.org/1999/xlink" x="0px" y="0px"
	 width="200px" height="200px" viewBox="0 0 200 200" enable-background="new 0 0 200 200" xml:space="preserve">
<g>
	<path fill="#FFFFFF" d="M136.424,160H63.576c-4.729,0-8.576-3.847-8.576-8.574V48.574C55,43.847,58.848,40,63.576,40h72.848
		c4.729,0,8.576,3.847,8.576,8.574v102.852C145,156.153,141.152,160,136.424,160z M63.576,44C61.053,44,59,46.052,59,48.574v102.852
		c0,2.522,2.053,4.574,4.576,4.574h72.848c2.523,0,4.576-2.052,4.576-4.574V48.574c0-2.522-2.053-4.574-4.576-4.574H63.576z"/>
	<circle fill="#FFFFFF" cx="99.779" cy="100.221" r="5.939"/>
</g>
</svg>
