<?xml version="1.0" encoding="utf-8"?>
<!-- Generator: Adobe Illustrator 16.0.4, SVG Export Plug-In . SVG Version: 6.00 Build 0)  -->
<!DOCTYPE svg PUBLIC "-//W3C//DTD SVG 1.1//EN" "http://www.w3.org/Graphics/SVG/1.1/DTD/svg11.dtd">
<svg version="1.1" id="Ebene_1" xmlns="http://www.w3.org/2000/svg" xmlns:xlink="http://www.w3.org/1999/xlink" x="0px" y="0px"
	 width="200px" height="200px" viewBox="0 0 200 200" enable-background="new 0 0 200 200" xml:space="preserve">
<g>
	<circle fill="#EF882B" cx="151.76" cy="100.219" r="5.939"/>
	<circle fill="#EF882B" cx="48.8" cy="100.219" r="5.94"/>
	<path fill="none" stroke="#000000" stroke-width="4" stroke-linecap="round" stroke-linejoin="round" stroke-miterlimit="10" d="
		M137,55.7c0-3.148-2.552-5.7-5.7-5.7H68.7c-3.147,0-5.7,2.552-5.7,5.7v88.6c0,3.148,2.553,5.7,5.7,5.7h62.6
		c3.148,0,5.7-2.552,5.7-5.7V55.7z"/>
	<path fill="none" stroke="#000000" stroke-width="4" stroke-linecap="round" stroke-linejoin="round" stroke-miterlimit="10" d="
		M55,65H27.24C25.053,65,23,66.793,23,68.98v62.039c0,2.187,2.053,3.98,4.24,3.98H55"/>
	<path fill="none" stroke="#000000" stroke-width="4" stroke-linecap="round" stroke-linejoin="round" stroke-miterlimit="10" d="
		M145,135h28.76c2.188,0,3.24-1.794,3.24-3.98V68.98c0-2.188-1.053-3.98-3.24-3.98H145"/>
	<circle fill="#EF882B" cx="100.28" cy="100.219" r="5.94"/>
</g>
</svg>
