<?xml version="1.0" encoding="utf-8"?>
<!-- Generator: Adobe Illustrator 16.0.4, SVG Export Plug-In . SVG Version: 6.00 Build 0)  -->
<!DOCTYPE svg PUBLIC "-//W3C//DTD SVG 1.1//EN" "http://www.w3.org/Graphics/SVG/1.1/DTD/svg11.dtd">
<svg version="1.1" id="Ebene_1" xmlns="http://www.w3.org/2000/svg" xmlns:xlink="http://www.w3.org/1999/xlink" x="0px" y="0px"
	 width="200px" height="200px" viewBox="0 0 200 200" enable-background="new 0 0 200 200" xml:space="preserve">
<g>
	<circle fill="#EF882B" cx="151.76" cy="100.219" r="5.939"/>
	<circle fill="#EF882B" cx="48.8" cy="100.219" r="5.94"/>
	<path d="M131.3,152H68.7c-4.246,0-7.7-3.454-7.7-7.7V55.7c0-4.246,3.454-7.7,7.7-7.7h62.6c4.246,0,7.7,3.454,7.7,7.7v88.6
		C139,148.546,135.546,152,131.3,152z M68.7,52c-2.04,0-3.7,1.66-3.7,3.7v88.6c0,2.04,1.66,3.7,3.7,3.7h62.6
		c2.04,0,3.7-1.66,3.7-3.7V55.7c0-2.04-1.66-3.7-3.7-3.7H68.7z"/>
	<path d="M55,137H27.24c-3.383,0-6.24-2.738-6.24-5.98V68.98c0-3.242,2.857-5.98,6.24-5.98H55c1.104,0,2,0.896,2,2s-0.896,2-2,2
		H27.24C26.089,67,25,67.963,25,68.98v62.039c0,1.018,1.089,1.98,2.24,1.98H55c1.104,0,2,0.896,2,2S56.104,137,55,137z"/>
	<path d="M173.76,137H145c-1.104,0-2-0.896-2-2s0.896-2,2-2h28.76c1.025,0,1.24-1.077,1.24-1.98V68.98c0-0.903-0.215-1.98-1.24-1.98
		H145c-1.104,0-2-0.896-2-2s0.896-2,2-2h28.76c3.135,0,5.24,2.403,5.24,5.98v62.039C179,134.597,176.895,137,173.76,137z"/>
	<circle fill="#EF882B" cx="100.28" cy="100.219" r="5.94"/>
</g>
</svg>
