<?xml version="1.0" encoding="utf-8"?>
<!-- Generator: Adobe Illustrator 16.0.4, SVG Export Plug-In . SVG Version: 6.00 Build 0)  -->
<!DOCTYPE svg PUBLIC "-//W3C//DTD SVG 1.1//EN" "http://www.w3.org/Graphics/SVG/1.1/DTD/svg11.dtd">
<svg version="1.1" id="Ebene_1" xmlns="http://www.w3.org/2000/svg" xmlns:xlink="http://www.w3.org/1999/xlink" x="0px" y="0px"
	 width="200px" height="200px" viewBox="0 0 200 200" enable-background="new 0 0 200 200" xml:space="preserve">
<g>
	<circle fill="#EF882B" cx="153.88" cy="149.061" r="5.94"/>
	<circle fill="#EF882B" cx="97.78" cy="51.38" r="5.94"/>
	<circle fill="#EF882B" cx="41.68" cy="149.061" r="5.939"/>
	<g>
		<path fill="none" stroke="#000000" stroke-width="4" stroke-linecap="round" stroke-miterlimit="10" d="M155,114h-22.68
			c-2.188,0-4.32,1.633-4.32,3.82v62.04c0,2.187,2.133,4.14,4.32,4.14h43.56c2.187,0,4.12-1.953,4.12-4.14v-62.04
			c0-2.188-1.934-3.82-4.12-3.82H171"/>
	</g>
	<g>
		<path fill="none" stroke="#000000" stroke-width="4" stroke-linecap="round" stroke-miterlimit="10" d="M68,165v-47.18
			c0-2.188-2.133-3.82-4.32-3.82H20.12c-2.187,0-4.12,1.633-4.12,3.82v62.04c0,2.187,1.934,4.14,4.12,4.14h43.56
			c1.309,0,2.644-0.566,3.365-1.544"/>
	</g>
	<g>
		<path fill="none" stroke="#000000" stroke-width="4" stroke-linecap="round" stroke-miterlimit="10" d="M72,65v17.18
			c0,2.188,2.033,3.82,4.221,3.82h43.56c2.187,0,4.22-1.633,4.22-3.82V20.141c0-2.188-2.033-4.141-4.22-4.141h-43.56
			C74.033,16,72,17.953,72,20.141V48"/>
	</g>
	<path fill="none" stroke="#000000" stroke-width="4" stroke-linecap="round" stroke-linejoin="round" stroke-miterlimit="10" d="
		M85.955,52.459c-26.854,4.945-47.902,26.42-52.238,53.48"/>
	<path fill="none" stroke="#000000" stroke-width="4" stroke-linecap="round" stroke-linejoin="round" stroke-miterlimit="10" d="
		M158.852,138.285c2.477-6.872,3.828-14.28,3.828-22.006c0-23.422-12.417-43.934-31.02-55.344"/>
	<path fill="none" stroke="#000000" stroke-width="4" stroke-linecap="round" stroke-linejoin="round" stroke-miterlimit="10" d="
		M48.637,158.74c11.902,13.859,29.504,22.475,49.145,22.475c7.97,0,15.604-1.473,22.658-4.103"/>
</g>
</svg>
