<?xml version="1.0" encoding="utf-8"?>
<!-- Generator: Adobe Illustrator 16.0.4, SVG Export Plug-In . SVG Version: 6.00 Build 0)  -->
<!DOCTYPE svg PUBLIC "-//W3C//DTD SVG 1.1//EN" "http://www.w3.org/Graphics/SVG/1.1/DTD/svg11.dtd">
<svg version="1.1" id="Ebene_1" xmlns="http://www.w3.org/2000/svg" xmlns:xlink="http://www.w3.org/1999/xlink" x="0px" y="0px"
	 width="200px" height="200px" viewBox="0 0 200 200" enable-background="new 0 0 200 200" xml:space="preserve">
<g>
	<circle fill="#EF882B" cx="153.88" cy="149.061" r="5.94"/>
	<circle fill="#EF882B" cx="97.78" cy="51.38" r="5.94"/>
	<circle fill="#EF882B" cx="41.68" cy="149.061" r="5.939"/>
	<g>
		<path d="M175.88,186h-43.56c-3.367,0-6.32-2.869-6.32-6.14v-62.04c0-3.155,2.895-5.82,6.32-5.82H155c1.104,0,2,0.896,2,2
			s-0.896,2-2,2h-22.68c-1.096,0-2.32,0.778-2.32,1.82v62.04c0,1.04,1.192,2.14,2.32,2.14h43.56c1.07,0,2.12-1.06,2.12-2.14v-62.04
			c0-1.124-1.101-1.82-2.12-1.82H171c-1.104,0-2-0.896-2-2s0.896-2,2-2h4.88c3.375,0,6.12,2.611,6.12,5.82v62.04
			C182,183.131,179.14,186,175.88,186z"/>
	</g>
	<g>
		<path d="M63.68,186H20.12c-3.26,0-6.12-2.869-6.12-6.14v-62.04c0-3.209,2.745-5.82,6.12-5.82h43.56c3.426,0,6.32,2.665,6.32,5.82
			V165c0,1.104-0.896,2-2,2s-2-0.896-2-2v-47.18c0-1.042-1.225-1.82-2.32-1.82H20.12c-1.02,0-2.12,0.696-2.12,1.82v62.04
			c0,1.08,1.05,2.14,2.12,2.14h43.56c0.716,0,1.438-0.301,1.756-0.731c0.656-0.889,1.907-1.078,2.797-0.422
			c0.889,0.656,1.077,1.908,0.422,2.797C67.581,185.098,65.675,186,63.68,186z"/>
	</g>
	<g>
		<path d="M119.78,88h-43.56C72.791,88,70,85.389,70,82.18V65c0-1.104,0.896-2,2-2s2,0.896,2,2v17.18c0,1.072,1.17,1.82,2.221,1.82
			h43.56c1.05,0,2.22-0.748,2.22-1.82V20.141c0-1.061-1.12-2.141-2.22-2.141h-43.56C75.121,18,74,19.08,74,20.141V48
			c0,1.104-0.896,2-2,2s-2-0.896-2-2V20.141C70,16.869,72.907,14,76.221,14h43.56c3.313,0,6.22,2.869,6.22,6.141V82.18
			C126,85.389,123.21,88,119.78,88z"/>
	</g>
	<path d="M33.72,107.939c-0.105,0-0.212-0.008-0.319-0.025c-1.091-0.175-1.833-1.2-1.658-2.291
		c4.465-27.866,26.105-50.021,53.851-55.131c1.084-0.2,2.129,0.519,2.329,1.604s-0.519,2.129-1.604,2.329
		c-26.083,4.804-46.428,25.633-50.626,51.83C35.534,107.239,34.685,107.939,33.72,107.939z"/>
	<path d="M158.852,140.286c-0.226,0-0.454-0.039-0.678-0.119c-1.039-0.375-1.578-1.521-1.204-2.56
		c2.462-6.831,3.71-14.007,3.71-21.328c0-22.04-11.239-42.092-30.065-53.639c-0.941-0.578-1.236-1.81-0.659-2.751
		c0.578-0.94,1.81-1.236,2.751-0.659c20.021,12.28,31.974,33.607,31.974,57.049c0,7.785-1.328,15.417-3.946,22.684
		C160.439,139.778,159.671,140.286,158.852,140.286z"/>
	<path d="M97.781,183.215c-19.55,0-38.016-8.445-50.662-23.172c-0.72-0.838-0.623-2.101,0.215-2.82
		c0.837-0.721,2.101-0.623,2.82,0.215c11.886,13.84,29.245,21.777,47.627,21.777c7.494,0,14.883-1.338,21.96-3.977
		c1.029-0.387,2.187,0.141,2.572,1.176c0.386,1.034-0.141,2.187-1.176,2.572C113.612,181.792,105.754,183.215,97.781,183.215z"/>
</g>
</svg>
