<?xml version="1.0" encoding="utf-8"?>
<!-- Generator: Adobe Illustrator 16.0.4, SVG Export Plug-In . SVG Version: 6.00 Build 0)  -->
<!DOCTYPE svg PUBLIC "-//W3C//DTD SVG 1.1//EN" "http://www.w3.org/Graphics/SVG/1.1/DTD/svg11.dtd">
<svg version="1.1" id="Ebene_1" xmlns="http://www.w3.org/2000/svg" xmlns:xlink="http://www.w3.org/1999/xlink" x="0px" y="0px"
	 width="160px" viewBox="0 0 328 106" enable-background="new 0 0 328 106" xml:space="preserve">
<g>
	<path fill="#4E4E4E" d="M60.321,53.945c-1.68,2.279-3.861,4.13-6.54,5.55c-2.68,1.419-5.901,2.13-9.66,2.13
		c-3.24,0-6.23-0.551-8.97-1.65c-2.74-1.1-5.1-2.64-7.08-4.62c-1.98-1.979-3.531-4.339-4.65-7.079c-1.121-2.74-1.68-5.75-1.68-9.03
		c0-3.319,0.57-6.351,1.71-9.091c1.14-2.738,2.72-5.078,4.74-7.02c2.019-1.939,4.41-3.449,7.17-4.529c2.76-1.08,5.76-1.621,9-1.621
		c1.44,0,2.899,0.141,4.38,0.42c1.479,0.281,2.9,0.701,4.26,1.261c1.359,0.561,2.6,1.251,3.72,2.069
		c1.12,0.82,2.08,1.771,2.88,2.851l-4.68,3.601c-1.041-1.44-2.511-2.631-4.41-3.57c-1.9-0.939-3.951-1.41-6.15-1.41
		c-2.481,0-4.71,0.449-6.69,1.35s-3.67,2.131-5.07,3.69c-1.4,1.56-2.48,3.37-3.24,5.43c-0.76,2.061-1.14,4.251-1.14,6.57
		c0,2.399,0.37,4.641,1.11,6.72c0.74,2.08,1.8,3.891,3.18,5.43c1.38,1.541,3.06,2.751,5.04,3.631s4.189,1.319,6.63,1.319
		c2.4,0,4.58-0.479,6.54-1.439c1.959-0.96,3.58-2.36,4.86-4.2L60.321,53.945z"/>
	<path fill="#4E4E4E" d="M94.161,46.266c0,2.199-0.39,4.22-1.17,6.059c-0.78,1.841-1.86,3.431-3.24,4.771
		c-1.38,1.341-3.01,2.381-4.89,3.12c-1.88,0.74-3.9,1.11-6.06,1.11c-2.16,0-4.18-0.37-6.06-1.11c-1.881-0.739-3.501-1.779-4.86-3.12
		c-1.36-1.34-2.43-2.93-3.21-4.771c-0.78-1.839-1.17-3.859-1.17-6.059c0-2.2,0.39-4.21,1.17-6.031c0.78-1.819,1.85-3.39,3.21-4.709
		c1.359-1.32,2.979-2.35,4.86-3.09c1.879-0.74,3.9-1.111,6.06-1.111c2.16,0,4.18,0.371,6.06,1.111c1.88,0.74,3.51,1.77,4.89,3.09
		c1.38,1.319,2.46,2.89,3.24,4.709C93.771,42.056,94.161,44.065,94.161,46.266z M88.281,46.295c0-1.355-0.211-2.652-0.632-3.889
		c-0.422-1.236-1.033-2.322-1.835-3.26s-1.796-1.685-2.979-2.244c-1.184-0.559-2.539-0.838-4.063-0.838
		c-1.525,0-2.88,0.279-4.063,0.838c-1.184,0.56-2.177,1.307-2.979,2.244c-0.803,0.938-1.415,2.023-1.835,3.26
		c-0.422,1.236-0.632,2.533-0.632,3.889c0,1.356,0.21,2.653,0.632,3.889c0.421,1.236,1.033,2.334,1.835,3.291
		c0.802,0.957,1.795,1.715,2.979,2.273c1.183,0.559,2.538,0.837,4.063,0.837c1.524,0,2.879-0.278,4.063-0.837
		c1.183-0.559,2.177-1.316,2.979-2.273s1.414-2.055,1.835-3.291C88.07,48.948,88.281,47.651,88.281,46.295z"/>
	<path fill="#4E4E4E" d="M124.64,56.045c-1.08,1.721-2.55,3.03-4.41,3.93c-1.86,0.9-3.81,1.351-5.85,1.351
		c-2.2,0-4.18-0.391-5.94-1.17c-1.76-0.78-3.26-1.85-4.5-3.21c-1.24-1.359-2.2-2.96-2.88-4.801c-0.681-1.839-1.02-3.799-1.02-5.879
		s0.339-4.03,1.02-5.851c0.68-1.819,1.65-3.409,2.91-4.771c1.26-1.359,2.769-2.42,4.53-3.18c1.76-0.76,3.7-1.141,5.82-1.141
		c2.319,0,4.339,0.491,6.06,1.471c1.72,0.98,3.08,2.17,4.08,3.57h0.12v-21.18h5.64v45.359h-5.46v-4.5H124.64z M105.92,46.295
		c0,1.316,0.2,2.594,0.6,3.828c0.399,1.237,1,2.334,1.8,3.291c0.799,0.957,1.779,1.726,2.94,2.304c1.16,0.578,2.52,0.867,4.08,0.867
		c1.44,0,2.75-0.278,3.93-0.837c1.18-0.559,2.19-1.307,3.03-2.244c0.84-0.938,1.489-2.023,1.95-3.26
		c0.459-1.236,0.69-2.533,0.69-3.889s-0.23-2.652-0.69-3.889c-0.46-1.236-1.11-2.333-1.95-3.291c-0.84-0.957-1.851-1.714-3.03-2.273
		c-1.18-0.559-2.49-0.838-3.93-0.838c-1.56,0-2.92,0.279-4.08,0.838c-1.161,0.56-2.141,1.316-2.94,2.273
		c-0.801,0.958-1.401,2.055-1.8,3.291C106.12,43.703,105.92,44.979,105.92,46.295z"/>
	<path fill="#4E4E4E" d="M166.64,46.085c0,0.321,0,0.64,0,0.96s-0.021,0.641-0.061,0.96h-22.62c0.04,1.192,0.31,2.315,0.81,3.366
		c0.5,1.053,1.17,1.967,2.01,2.741s1.809,1.381,2.91,1.817c1.1,0.437,2.27,0.655,3.51,0.655c1.92,0,3.58-0.42,4.98-1.26
		c1.4-0.84,2.5-1.86,3.3-3.06l3.961,3.18c-1.522,2.016-3.312,3.499-5.371,4.452c-2.061,0.951-4.35,1.428-6.87,1.428
		c-2.16,0-4.161-0.36-6-1.08c-1.84-0.72-3.42-1.729-4.74-3.03c-1.32-1.299-2.36-2.869-3.12-4.71c-0.76-1.839-1.14-3.88-1.14-6.12
		c0-2.199,0.37-4.23,1.112-6.09s1.774-3.45,3.097-4.77c1.323-1.32,2.887-2.35,4.69-3.09s3.747-1.111,5.832-1.111
		c2.084,0,3.978,0.341,5.682,1.021c1.704,0.681,3.146,1.661,4.33,2.94c1.182,1.28,2.094,2.83,2.735,4.65
		C166.32,41.756,166.64,43.805,166.64,46.085z M160.88,43.805c-0.041-1.119-0.231-2.169-0.57-3.15c-0.34-0.979-0.84-1.83-1.5-2.549
		c-0.66-0.721-1.48-1.291-2.46-1.711c-0.98-0.42-2.13-0.629-3.45-0.629c-1.2,0-2.331,0.209-3.39,0.629
		c-1.061,0.42-1.98,0.99-2.76,1.711c-0.78,0.719-1.42,1.57-1.92,2.549c-0.5,0.981-0.79,2.031-0.87,3.15H160.88z"/>
	<path fill="#4E4E4E" d="M188.359,36.725h-7.559V51.5c0,1.715,0.318,2.94,0.959,3.679c0.641,0.737,1.66,1.106,3.061,1.106
		c0.52,0,1.08-0.055,1.68-0.165s1.141-0.274,1.621-0.495l0.18,4.62c-0.682,0.24-1.432,0.429-2.25,0.569
		c-0.82,0.141-1.672,0.211-2.551,0.211c-2.68,0-4.73-0.74-6.15-2.221c-1.42-1.479-2.129-3.699-2.129-6.66v-15.42h-5.461v-4.619
		h5.461v-8.16h5.58v8.16h7.559V36.725z"/>
	<path fill="#4E4E4E" d="M200.061,36.425c0.68-1.399,1.84-2.6,3.48-3.601c1.639-0.998,3.479-1.5,5.52-1.5
		c1.84,0,3.42,0.311,4.74,0.931c1.318,0.62,2.42,1.45,3.299,2.49s1.531,2.261,1.951,3.659c0.42,1.401,0.629,2.901,0.629,4.5v17.641
		h-5.639V44.787c0-1.163-0.092-2.267-0.271-3.309c-0.18-1.043-0.51-1.965-0.99-2.768c-0.479-0.801-1.129-1.442-1.949-1.924
		s-1.891-0.723-3.211-0.723c-2.24,0-4.078,0.853-5.52,2.557c-1.439,1.705-2.16,3.98-2.16,6.827v15.097h-5.639V15.186h5.639v21.239
		H200.061z"/>
	<path fill="#4D4D4D" d="M234.92,60.545h-5.641V32.105h5.641V60.545z"/>
	<path fill="#4E4E4E" d="M249.859,32.105c0.08,0.719,0.141,1.529,0.18,2.43s0.061,1.65,0.061,2.25h0.18
		c0.361-0.76,0.85-1.471,1.471-2.131c0.619-0.659,1.328-1.238,2.129-1.739c0.801-0.5,1.682-0.89,2.641-1.17
		c0.961-0.28,1.959-0.421,3-0.421c1.84,0,3.42,0.311,4.74,0.931s2.42,1.45,3.301,2.49c0.879,1.04,1.529,2.261,1.949,3.659
		c0.42,1.401,0.631,2.901,0.631,4.5v17.641H264.5V44.766c0-1.16-0.09-2.26-0.27-3.301c-0.182-1.039-0.512-1.959-0.99-2.76
		c-0.48-0.8-1.141-1.439-1.98-1.92s-1.92-0.721-3.24-0.721c-2.24,0-4.07,0.851-5.49,2.551s-2.129,3.971-2.129,6.81v15.12h-5.641
		v-22.32c0-0.76-0.021-1.74-0.061-2.939c-0.039-1.2-0.1-2.26-0.18-3.18H249.859z"/>
	<path fill="#4E4E4E" d="M285.439,44.465h0.18l11.939-12.359h7.561l-13.32,12.899l14.461,15.54h-7.801l-12.84-14.76h-0.18v14.76
		h-5.641V15.186h5.641V44.465z"/>
	<path fill="#EF882B" d="M235.82,21.845c0,1.041-0.367,1.9-1.102,2.58c-0.734,0.681-1.617,1.021-2.648,1.021
		s-1.904-0.35-2.619-1.051c-0.715-0.699-1.07-1.549-1.07-2.55c0-1.04,0.355-1.909,1.07-2.61c0.715-0.699,1.588-1.049,2.619-1.049
		s1.914,0.35,2.648,1.049C235.453,19.936,235.82,20.805,235.82,21.845z"/>
</g>
<g>
	<path fill="#EF882B" d="M78.164,88.735h0.042l3.717-12.789h1.806l3.717,12.789h0.042l3.633-12.789h1.596l-4.389,14.868h-1.764
		l-3.738-12.768h-0.042l-3.738,12.768h-1.764l-4.389-14.868h1.596L78.164,88.735z"/>
	<path fill="#EF882B" d="M103.09,85.606c0,0.098,0,0.203,0,0.315c0,0.111-0.007,0.23-0.021,0.356h-8.148
		c0.014,0.49,0.112,0.952,0.294,1.386c0.182,0.435,0.434,0.812,0.756,1.135c0.322,0.322,0.7,0.577,1.134,0.767
		c0.434,0.188,0.903,0.283,1.407,0.283c0.742,0,1.383-0.172,1.922-0.515c0.539-0.343,0.948-0.738,1.229-1.187l1.071,0.84
		c-0.588,0.742-1.236,1.274-1.942,1.596c-0.707,0.322-1.467,0.483-2.279,0.483c-0.728,0-1.403-0.13-2.026-0.389
		s-1.159-0.619-1.606-1.081c-0.448-0.462-0.802-1.008-1.061-1.639c-0.259-0.63-0.389-1.315-0.389-2.058s0.126-1.428,0.378-2.059
		c0.252-0.629,0.602-1.176,1.05-1.637c0.448-0.463,0.973-0.822,1.575-1.082c0.602-0.259,1.252-0.389,1.953-0.389
		c0.77,0,1.449,0.13,2.037,0.389c0.588,0.26,1.078,0.609,1.47,1.05c0.392,0.44,0.689,0.956,0.893,1.544
		C102.989,84.305,103.09,84.935,103.09,85.606z M101.642,85.145c-0.042-0.924-0.34-1.69-0.893-2.3
		c-0.553-0.608-1.341-0.913-2.363-0.913c-0.476,0-0.917,0.088-1.323,0.262c-0.406,0.176-0.763,0.414-1.071,0.715
		s-0.553,0.645-0.735,1.029c-0.182,0.385-0.287,0.787-0.315,1.207H101.642z"/>
	<path fill="#EF882B" d="M107.626,89.155v1.659h-1.428V74.938h1.428v7.749h0.042c0.42-0.645,0.966-1.131,1.638-1.459
		c0.672-0.329,1.365-0.494,2.079-0.494c0.77,0,1.466,0.133,2.089,0.398c0.623,0.267,1.155,0.631,1.596,1.093
		c0.441,0.462,0.784,1.008,1.029,1.638c0.245,0.631,0.368,1.31,0.368,2.037c0,0.729-0.123,1.407-0.368,2.037
		c-0.245,0.63-0.588,1.176-1.029,1.638c-0.441,0.462-0.974,0.826-1.596,1.092c-0.623,0.267-1.32,0.399-2.089,0.399
		c-0.714,0-1.407-0.161-2.079-0.483c-0.672-0.321-1.218-0.798-1.638-1.428H107.626z M114.955,85.9c0-0.546-0.084-1.061-0.252-1.543
		c-0.168-0.483-0.41-0.903-0.725-1.26c-0.315-0.357-0.704-0.641-1.166-0.852c-0.462-0.209-0.987-0.314-1.575-0.314
		c-0.546,0-1.05,0.102-1.512,0.305s-0.861,0.482-1.197,0.84c-0.336,0.357-0.599,0.777-0.788,1.26
		c-0.189,0.483-0.284,1.005-0.284,1.564c0,0.561,0.095,1.082,0.284,1.564c0.189,0.483,0.451,0.899,0.788,1.25
		c0.336,0.35,0.735,0.626,1.197,0.829s0.966,0.305,1.512,0.305c0.588,0,1.113-0.102,1.575-0.305s0.851-0.483,1.166-0.84
		c0.315-0.357,0.557-0.777,0.725-1.26C114.871,86.961,114.955,86.446,114.955,85.9z"/>
	<path fill="#EF882B" d="M123.355,86.32h-4.704v-1.197h4.704V86.32z"/>
	<path fill="#EF882B" d="M126.337,75.946h4.935c0.924,0,1.851,0.154,2.782,0.462s1.771,0.773,2.52,1.396s1.354,1.4,1.816,2.331
		c0.462,0.932,0.693,2.013,0.693,3.245c0,1.246-0.231,2.331-0.693,3.255c-0.462,0.924-1.067,1.697-1.816,2.32
		s-1.589,1.089-2.52,1.396s-1.858,0.462-2.782,0.462h-4.935V75.946z M127.849,89.471h3.003c1.12,0,2.097-0.175,2.93-0.525
		c0.833-0.35,1.522-0.809,2.068-1.375c0.546-0.567,0.956-1.215,1.229-1.942c0.273-0.729,0.41-1.478,0.41-2.247
		s-0.137-1.52-0.41-2.248c-0.273-0.727-0.682-1.375-1.229-1.941c-0.546-0.567-1.235-1.025-2.068-1.376
		c-0.833-0.35-1.81-0.524-2.93-0.524h-3.003V89.471z"/>
	<path fill="#EF882B" d="M151.096,85.606c0,0.098,0,0.203,0,0.315c0,0.111-0.007,0.23-0.021,0.356h-8.148
		c0.014,0.49,0.112,0.952,0.294,1.386c0.182,0.435,0.434,0.812,0.756,1.135c0.322,0.322,0.7,0.577,1.134,0.767
		c0.434,0.188,0.903,0.283,1.407,0.283c0.742,0,1.383-0.172,1.922-0.515c0.539-0.343,0.948-0.738,1.229-1.187l1.071,0.84
		c-0.588,0.742-1.236,1.274-1.942,1.596c-0.707,0.322-1.467,0.483-2.279,0.483c-0.728,0-1.403-0.13-2.026-0.389
		s-1.159-0.619-1.606-1.081c-0.448-0.462-0.802-1.008-1.061-1.639c-0.259-0.63-0.389-1.315-0.389-2.058s0.126-1.428,0.378-2.059
		c0.252-0.629,0.602-1.176,1.05-1.637c0.448-0.463,0.973-0.822,1.575-1.082c0.602-0.259,1.252-0.389,1.953-0.389
		c0.77,0,1.449,0.13,2.037,0.389c0.588,0.26,1.078,0.609,1.47,1.05c0.392,0.44,0.689,0.956,0.893,1.544
		C150.994,84.305,151.096,84.935,151.096,85.606z M149.647,85.145c-0.042-0.924-0.34-1.69-0.893-2.3
		c-0.553-0.608-1.341-0.913-2.363-0.913c-0.476,0-0.917,0.088-1.323,0.262c-0.406,0.176-0.763,0.414-1.071,0.715
		s-0.553,0.645-0.735,1.029c-0.182,0.385-0.287,0.787-0.315,1.207H149.647z"/>
	<path fill="#EF882B" d="M158.193,90.814h-1.575l-4.011-9.828h1.596l3.192,8.316h0.042l3.213-8.316h1.533L158.193,90.814z"/>
	<path fill="#EF882B" d="M173.355,85.606c0,0.098,0,0.203,0,0.315c0,0.111-0.008,0.23-0.021,0.356h-8.147
		c0.014,0.49,0.112,0.952,0.294,1.386c0.182,0.435,0.434,0.812,0.756,1.135c0.322,0.322,0.7,0.577,1.134,0.767
		c0.434,0.188,0.903,0.283,1.407,0.283c0.742,0,1.383-0.172,1.922-0.515s0.948-0.738,1.229-1.187l1.07,0.84
		c-0.588,0.742-1.235,1.274-1.941,1.596c-0.707,0.322-1.467,0.483-2.279,0.483c-0.728,0-1.403-0.13-2.026-0.389
		s-1.159-0.619-1.606-1.081c-0.448-0.462-0.802-1.008-1.061-1.639c-0.259-0.63-0.389-1.315-0.389-2.058s0.126-1.428,0.378-2.059
		c0.252-0.629,0.602-1.176,1.05-1.637c0.448-0.463,0.973-0.822,1.575-1.082c0.602-0.259,1.252-0.389,1.953-0.389
		c0.771,0,1.449,0.13,2.037,0.389c0.588,0.26,1.078,0.609,1.47,1.05c0.393,0.44,0.689,0.956,0.893,1.544
		S173.355,84.935,173.355,85.606z M171.906,85.145c-0.041-0.924-0.34-1.69-0.893-2.3c-0.553-0.608-1.34-0.913-2.362-0.913
		c-0.476,0-0.917,0.088-1.323,0.262c-0.406,0.176-0.763,0.414-1.071,0.715s-0.553,0.645-0.735,1.029
		c-0.182,0.385-0.287,0.787-0.315,1.207H171.906z"/>
	<path fill="#EF882B" d="M177.891,90.814h-1.428V74.938h1.428V90.814z"/>
	<path fill="#EF882B" d="M191.479,85.9c0,0.742-0.13,1.428-0.389,2.058c-0.26,0.631-0.619,1.177-1.082,1.639
		c-0.461,0.462-1.015,0.822-1.658,1.081c-0.645,0.259-1.352,0.389-2.121,0.389c-0.756,0-1.457-0.13-2.1-0.389
		c-0.645-0.259-1.197-0.619-1.66-1.081c-0.461-0.462-0.822-1.008-1.081-1.639c-0.259-0.63-0.389-1.315-0.389-2.058
		s0.13-1.428,0.389-2.059c0.259-0.629,0.62-1.176,1.081-1.637c0.463-0.463,1.016-0.822,1.66-1.082
		c0.643-0.259,1.344-0.389,2.1-0.389c0.77,0,1.477,0.13,2.121,0.389c0.644,0.26,1.197,0.619,1.658,1.082
		c0.463,0.461,0.822,1.008,1.082,1.637C191.349,84.473,191.479,85.158,191.479,85.9z M189.967,85.9c0-0.546-0.088-1.061-0.264-1.543
		c-0.175-0.483-0.423-0.903-0.745-1.26c-0.321-0.357-0.714-0.641-1.176-0.852c-0.462-0.209-0.979-0.314-1.554-0.314
		s-1.089,0.105-1.544,0.314c-0.455,0.211-0.843,0.494-1.165,0.852c-0.322,0.356-0.57,0.776-0.746,1.26
		c-0.175,0.482-0.262,0.997-0.262,1.543s0.087,1.061,0.262,1.544c0.176,0.482,0.424,0.902,0.746,1.26
		c0.322,0.356,0.71,0.637,1.165,0.84s0.97,0.305,1.544,0.305s1.092-0.102,1.554-0.305s0.854-0.483,1.176-0.84
		c0.322-0.357,0.57-0.777,0.745-1.26C189.879,86.961,189.967,86.446,189.967,85.9z"/>
	<path fill="#EF882B" d="M195.972,95.854h-1.428V80.986h1.428v1.701h0.063c0.406-0.645,0.947-1.131,1.627-1.459
		c0.68-0.329,1.369-0.494,2.068-0.494c0.77,0,1.467,0.133,2.09,0.398c0.623,0.267,1.154,0.631,1.596,1.093s0.784,1.008,1.029,1.638
		c0.244,0.631,0.367,1.31,0.367,2.037c0,0.729-0.123,1.407-0.367,2.037c-0.245,0.63-0.588,1.176-1.029,1.638
		s-0.973,0.826-1.596,1.092c-0.623,0.267-1.32,0.399-2.09,0.399c-0.699,0-1.389-0.165-2.068-0.493
		c-0.68-0.329-1.221-0.802-1.627-1.418h-0.063V95.854z M203.301,85.9c0-0.546-0.084-1.061-0.252-1.543
		c-0.168-0.483-0.41-0.903-0.725-1.26c-0.314-0.357-0.703-0.641-1.166-0.852c-0.461-0.209-0.986-0.314-1.574-0.314
		c-0.547,0-1.051,0.102-1.512,0.305c-0.463,0.203-0.861,0.482-1.197,0.84s-0.599,0.777-0.787,1.26
		c-0.189,0.483-0.284,1.005-0.284,1.564c0,0.561,0.095,1.082,0.284,1.564c0.188,0.483,0.451,0.899,0.787,1.25
		c0.336,0.35,0.734,0.626,1.197,0.829c0.461,0.203,0.965,0.305,1.512,0.305c0.588,0,1.113-0.102,1.574-0.305
		c0.463-0.203,0.852-0.483,1.166-0.84c0.314-0.357,0.557-0.777,0.725-1.26C203.217,86.961,203.301,86.446,203.301,85.9z"/>
	<path fill="#EF882B" d="M210.577,81.27c0.581-0.356,1.229-0.535,1.942-0.535c0.266,0,0.543,0.028,0.83,0.084
		c0.287,0.057,0.566,0.165,0.84,0.326c0.273,0.16,0.525,0.374,0.756,0.641c0.23,0.266,0.431,0.608,0.599,1.028
		c0.336-0.672,0.794-1.187,1.376-1.544c0.58-0.356,1.27-0.535,2.068-0.535c1.246,0,2.18,0.371,2.803,1.113s0.935,1.722,0.935,2.939
		v6.027h-1.428v-5.439c0-1.035-0.192-1.869-0.577-2.498c-0.386-0.631-1.04-0.945-1.964-0.945c-0.519,0-0.956,0.105-1.312,0.314
		c-0.356,0.211-0.644,0.486-0.86,0.83c-0.218,0.343-0.375,0.731-0.473,1.165c-0.099,0.435-0.147,0.882-0.147,1.345v5.229h-1.429
		v-5.733c0-0.476-0.035-0.909-0.104-1.302c-0.07-0.392-0.192-0.725-0.367-0.998c-0.175-0.272-0.417-0.482-0.725-0.629
		c-0.308-0.147-0.7-0.221-1.177-0.221c-0.336,0-0.675,0.077-1.018,0.23c-0.344,0.154-0.651,0.389-0.924,0.703
		c-0.273,0.316-0.494,0.715-0.662,1.197c-0.168,0.483-0.252,1.054-0.252,1.712v5.04h-1.428v-7.665c0-0.266-0.008-0.608-0.021-1.028
		s-0.035-0.799-0.062-1.135h1.365c0.027,0.266,0.049,0.561,0.062,0.883c0.014,0.321,0.021,0.588,0.021,0.797h0.041
		C209.565,82.093,209.996,81.627,210.577,81.27z"/>
	<path fill="#EF882B" d="M235.367,85.606c0,0.098,0,0.203,0,0.315c0,0.111-0.007,0.23-0.021,0.356h-8.147
		c0.014,0.49,0.111,0.952,0.293,1.386c0.182,0.435,0.435,0.812,0.756,1.135c0.322,0.322,0.701,0.577,1.135,0.767
		c0.434,0.188,0.902,0.283,1.406,0.283c0.742,0,1.383-0.172,1.922-0.515s0.949-0.738,1.229-1.187l1.071,0.84
		c-0.588,0.742-1.235,1.274-1.942,1.596c-0.707,0.322-1.467,0.483-2.279,0.483c-0.728,0-1.402-0.13-2.025-0.389
		s-1.159-0.619-1.607-1.081c-0.447-0.462-0.801-1.008-1.061-1.639c-0.259-0.63-0.389-1.315-0.389-2.058s0.127-1.428,0.379-2.059
		c0.252-0.629,0.602-1.176,1.05-1.637c0.448-0.463,0.973-0.822,1.575-1.082c0.602-0.259,1.252-0.389,1.953-0.389
		c0.77,0,1.449,0.13,2.037,0.389c0.588,0.26,1.078,0.609,1.47,1.05s0.689,0.956,0.893,1.544
		C235.266,84.305,235.367,84.935,235.367,85.606z M233.919,85.145c-0.042-0.924-0.34-1.69-0.893-2.3
		c-0.554-0.608-1.341-0.913-2.362-0.913c-0.477,0-0.918,0.088-1.323,0.262c-0.406,0.176-0.763,0.414-1.071,0.715
		s-0.553,0.645-0.734,1.029c-0.183,0.385-0.287,0.787-0.315,1.207H233.919z"/>
	<path fill="#EF882B" d="M239.715,80.986c0.027,0.266,0.049,0.561,0.062,0.883c0.014,0.321,0.021,0.588,0.021,0.797h0.041
		c0.281-0.573,0.736-1.039,1.365-1.396c0.631-0.356,1.295-0.535,1.996-0.535c1.246,0,2.18,0.371,2.803,1.113
		s0.934,1.722,0.934,2.939v6.027h-1.428v-5.439c0-0.518-0.041-0.986-0.125-1.406s-0.229-0.781-0.432-1.082s-0.475-0.535-0.818-0.703
		s-0.773-0.252-1.291-0.252c-0.379,0-0.746,0.077-1.104,0.23c-0.355,0.154-0.676,0.389-0.955,0.703
		c-0.279,0.316-0.504,0.715-0.672,1.197c-0.168,0.483-0.252,1.054-0.252,1.712v5.04h-1.428v-7.665c0-0.266-0.008-0.608-0.021-1.028
		s-0.035-0.799-0.062-1.135H239.715z"/>
	<path fill="#EF882B" d="M255.065,82.184h-2.772v5.732c0,0.364,0.035,0.666,0.105,0.903c0.069,0.238,0.171,0.424,0.305,0.557
		c0.133,0.133,0.29,0.224,0.472,0.273c0.182,0.049,0.378,0.073,0.588,0.073c0.196,0,0.402-0.028,0.62-0.084
		c0.217-0.056,0.423-0.133,0.619-0.231l0.063,1.239c-0.252,0.098-0.515,0.171-0.788,0.221c-0.272,0.049-0.57,0.073-0.893,0.073
		c-0.266,0-0.546-0.035-0.84-0.104c-0.294-0.07-0.566-0.203-0.818-0.399s-0.459-0.462-0.62-0.798s-0.241-0.777-0.241-1.323v-6.132
		h-2.037v-1.197h2.037v-2.771h1.428v2.771h2.772V82.184z"/>
</g>
</svg>
