<svg xmlns="http://www.w3.org/2000/svg" width="140" height="140" viewBox="0 0 210 210">
	<style>.a{fill:none;stroke-linejoin:round;stroke-width:3;stroke:#4E4E4E;}</style><circle cx="104.9" cy="106.3" r="67.1" style="fill:none;stroke-width:3;stroke:#4E4E4E"/><path d="M122.8 101.5c0 0.1 0 0.1 0 0.2 -0.9 4-2.9 7.2-5.9 9.6 -3 2.5-6.5 3.7-10.6 3.7 -2.2 0-4.2-0.4-6.3-1.2 -2-0.8-3.8-2-5.4-3.5l-2.9 2.9c-0.3 0.3-0.6 0.4-1 0.4s-0.7-0.1-1-0.4c-0.3-0.3-0.4-0.6-0.4-1v-9.9c0-0.4 0.1-0.7 0.4-1 0.3-0.3 0.6-0.4 1-0.4h9.9c0.4 0 0.7 0.1 1 0.4 0.3 0.3 0.4 0.6 0.4 1s-0.1 0.7-0.4 1l-3 3c1 1 2.2 1.7 3.6 2.3 1.3 0.5 2.7 0.8 4.1 0.8 2 0 3.8-0.5 5.5-1.4 1.7-1 3.1-2.3 4.1-4 0.2-0.2 0.6-1.1 1.2-2.6 0.1-0.3 0.3-0.5 0.7-0.5h4.3c0.2 0 0.4 0.1 0.5 0.2C122.8 101.2 122.8 101.4 122.8 101.5zM123.4 83.8v9.9c0 0.4-0.1 0.7-0.4 1 -0.3 0.3-0.6 0.4-1 0.4h-9.9c-0.4 0-0.7-0.1-1-0.4 -0.3-0.3-0.4-0.6-0.4-1s0.1-0.7 0.4-1l3.1-3.1c-2.2-2-4.8-3-7.7-3 -2 0-3.8 0.5-5.5 1.4 -1.7 1-3.1 2.3-4.1 4 -0.2 0.3-0.6 1.1-1.2 2.6 -0.1 0.3-0.3 0.5-0.7 0.5h-4.4c-0.2 0-0.4-0.1-0.5-0.2s-0.2-0.3-0.2-0.5v-0.2c1-4 3-7.2 6-9.6 3-2.5 6.6-3.7 10.6-3.7 2.2 0 4.3 0.4 6.3 1.2 2 0.8 3.9 2 5.4 3.5l2.9-2.9c0.3-0.3 0.6-0.4 1-0.4 0.4 0 0.7 0.1 1 0.4C123.2 83.1 123.4 83.4 123.4 83.8z" style="fill:none;stroke-linejoin:round;stroke-width:3;stroke:#F48A36"/><path d="M146.5 124V75.8c0-3.3-1.8-6.2-5.1-6.2h-72c-3.3 0-6.9 2.9-6.9 6.3V124" class="a"/><path d="M120.4 125.5c0 1-0.9 2-2 2h-25c-1.1 0-2-1-2-2h-42l0 0c0 0 2.7 6 6 6h100c3.3 0 6-2 6-6l0 0H120.4z" class="a"/><rect x="67.5" y="74.5" width="74" height="46" class="a"/>
</svg>
