<svg xmlns="http://www.w3.org/2000/svg" width="160" height="120" viewBox="0 0 210 210">
	<style>.a{fill:none;stroke-linejoin:round;stroke-width:3;stroke:#4E4E4E;}</style><circle cx="104.9" cy="106.3" r="67.1" style="fill:none;stroke-width:3;stroke:#4E4E4E"/><path d="M118.4 96.2c-0.2 0.4-0.5 0.6-1 0.6h-7.7v17.1c0 0.3-0.1 0.6-0.3 0.8 -0.2 0.2-0.5 0.3-0.8 0.3h-6.6c-0.3 0-0.6-0.1-0.8-0.3 -0.2-0.2-0.3-0.5-0.3-0.8V96.8h-7.7c-0.5 0-0.8-0.2-1-0.6 -0.2-0.4-0.1-0.8 0.2-1.2l12-13.1c0.2-0.2 0.5-0.3 0.8-0.3 0.3 0 0.6 0.1 0.8 0.3l12.1 13.1C118.5 95.4 118.6 95.8 118.4 96.2z" style="fill:none;stroke-linejoin:round;stroke-width:3;stroke:#F48A36"/><path d="M147.5 124V75.8c0-3.3-2.8-6.2-6.1-6.2h-72c-3.3 0-5.9 2.9-5.9 6.3V124" class="a"/><path d="M120.4 125.5c0 1-0.9 2-2 2h-25c-1.1 0-2-1-2-2h-42l0 0c0 0 2.7 6 6 6h100c3.3 0 6-2 6-6l0 0H120.4z" class="a"/><rect x="68.5" y="74.5" width="74" height="46" class="a"/>
</svg>
