<svg xmlns="http://www.w3.org/2000/svg" width="160" height="120" viewBox="0 0 320 210">
	<style>.a{fill:none;stroke-width:3;stroke:#4E4E4E;}.b{fill:#4E4E4E;}.c{fill:none;stroke-linejoin:round;stroke-width:3;stroke:#4E4E4E;}.d{fill:#FFF;stroke-linejoin:round;stroke-width:3;stroke:#4E4E4E;}.e{fill:#F48A36;}</style><path d="M111.7 190.2c14.2 8.1 30.7 12.7 48.3 12.7 22.8 0 43.8-7.8 60.5-20.9" class="a"/><polygon points="108.6 200.5 99.2 181.8 120.1 183 " class="b"/><path d="M207.9 19.9c-14.2-8-30.5-12.6-48-12.6 -23 0-44.1 7.9-60.7 21.2" class="a"/><polygon points="210.9 9.6 220.4 28.3 199.5 27.2 " class="b"/><circle cx="78.8" cy="105.3" r="67.1" class="a"/><path d="M88.6 101.5v8c0 0.3-0.1 0.6-0.3 0.8 -0.2 0.3-0.4 0.4-0.7 0.5l-6.7 1c-0.3 1-0.8 2.1-1.4 3.3 1 1.4 2.3 3 3.9 5 0.2 0.3 0.3 0.6 0.3 0.9 0 0.3-0.1 0.6-0.3 0.8 -0.7 0.9-1.9 2.2-3.6 3.9 -1.7 1.7-2.8 2.6-3.4 2.6 -0.3 0-0.6-0.1-0.9-0.3l-5-3.9c-1.1 0.5-2.2 1-3.3 1.3 -0.3 3.1-0.6 5.4-1 6.7 -0.2 0.7-0.6 1-1.3 1h-8c-0.3 0-0.6-0.1-0.9-0.3s-0.4-0.5-0.4-0.8l-1-6.6c-1-0.3-2.1-0.7-3.2-1.3l-5.1 3.8c-0.2 0.2-0.5 0.3-0.9 0.3 -0.3 0-0.6-0.1-0.9-0.3 -4.2-3.8-6.2-6.1-6.2-6.9 0-0.3 0.1-0.5 0.3-0.8 0.3-0.4 0.9-1.2 1.8-2.3s1.6-2 2-2.6c-0.7-1.3-1.2-2.5-1.5-3.5l-6.6-1c-0.3 0-0.5-0.2-0.7-0.4 -0.2-0.2-0.3-0.5-0.3-0.8v-8c0-0.3 0.1-0.6 0.3-0.8 0.2-0.3 0.4-0.4 0.7-0.5l6.7-1c0.3-1 0.8-2.1 1.4-3.3 -1-1.4-2.3-3-3.9-5 -0.2-0.3-0.3-0.6-0.3-0.9 0-0.3 0.1-0.6 0.3-0.9 0.6-0.9 1.8-2.1 3.5-3.9 1.7-1.7 2.9-2.6 3.4-2.6 0.3 0 0.6 0.1 0.9 0.3l5 3.9c1-0.5 2.1-1 3.3-1.4 0.3-3.1 0.6-5.3 1-6.7 0.2-0.7 0.6-1 1.3-1h8c0.3 0 0.6 0.1 0.9 0.3 0.3 0.2 0.4 0.5 0.4 0.8l1 6.6c1 0.3 2.1 0.7 3.2 1.3l5.1-3.9c0.2-0.2 0.5-0.3 0.9-0.3 0.3 0 0.6 0.1 0.9 0.3 4.2 3.8 6.2 6.1 6.2 6.9 0 0.3-0.1 0.5-0.3 0.8 -0.3 0.5-1 1.2-1.8 2.3 -0.9 1.1-1.5 2-1.9 2.6 0.7 1.4 1.2 2.6 1.5 3.5l6.6 1c0.3 0.1 0.5 0.2 0.7 0.5C88.5 100.9 88.6 101.2 88.6 101.5z" class="c"/><path d="M68.8 113.2c2.2-2.2 3.2-4.8 3.2-7.8 0-3.1-1.1-5.7-3.2-7.8 -2.2-2.2-4.8-3.2-7.8-3.2 -3.1 0-5.7 1.1-7.8 3.2 -2.2 2.2-3.2 4.8-3.2 7.8 0 3.1 1.1 5.7 3.2 7.8 2.2 2.2 4.8 3.2 7.8 3.2C64 116.5 66.6 115.4 68.8 113.2z" class="c"/><path d="M117.5 122.5l1.1 6c0.1 0.5-1.9 1.3-6.1 2.5 -0.2 0.8-0.5 1.6-0.9 2.4 2 2.9 3.1 4.8 3.3 5.5 0 0.1 0 0.2-0.1 0.3 -3.1 2.7-4.7 4-4.7 4 -0.2 0-1-0.5-2.3-1.6 -1.3-1.1-2.2-2-2.7-2.5 -0.6 0.2-1 0.3-1.3 0.3 -0.3 0.1-0.7 0.1-1.3 0.2 -0.3 0.7-0.8 1.8-1.7 3.3 -0.8 1.5-1.4 2.3-1.6 2.4 -0.1 0-2-0.7-5.8-2 -0.1-0.1-0.2-0.2-0.2-0.3 -0.1-0.7 0.2-2.8 1.1-6.3 -0.6-0.6-1.2-1.3-1.7-2 -4.3 0.4-6.5 0.3-6.6-0.1l-1.1-6c-0.1-0.5 1.9-1.3 6.1-2.5 0.2-0.9 0.5-1.7 0.9-2.4 -2-2.9-3.1-4.8-3.3-5.5 0-0.1 0-0.2 0.1-0.3 0.1-0.1 0.5-0.5 1.3-1.1 0.8-0.7 1.5-1.3 2.2-1.9 0.7-0.6 1.1-0.9 1.1-0.9 0.2 0 1 0.5 2.3 1.6 1.3 1.1 2.2 1.9 2.7 2.5 0.6-0.2 1-0.3 1.3-0.3 0.3-0.1 0.7-0.1 1.3-0.2 1.1-2.3 2.1-4.1 3-5.5l0.2-0.1c0.1 0 2.1 0.6 5.8 2 0.1 0.1 0.2 0.2 0.2 0.3 0.1 0.7-0.2 2.8-1.1 6.3 0.6 0.6 1.2 1.2 1.7 2C115.2 122 117.4 122.1 117.5 122.5z" class="c"/><path d="M112.5 79.8c-0.2-0.9-0.5-1.7-0.8-2.5 2.1-2.9 3.2-4.7 3.3-5.4 0-0.1 0-0.2-0.1-0.3 -3-2.7-4.5-4-4.7-4l-0.3 0c-1.4 0.9-3 2.2-4.9 4 -0.6-0.2-1-0.3-1.3-0.3s-0.7-0.1-1.3-0.2c-0.3-0.7-0.8-1.8-1.6-3.3 -0.8-1.5-1.3-2.3-1.6-2.4 -0.1 0-0.5 0.1-1.4 0.4 -0.9 0.3-1.8 0.6-2.8 0.9 -1 0.3-1.5 0.5-1.7 0.5 -0.1 0.1-0.2 0.1-0.2 0.3 -0.1 0.7 0.2 2.8 1 6.3 -0.6 0.6-1.2 1.2-1.7 1.9 -4.3-0.4-6.5-0.4-6.6 0l-1.2 5.9c-0.1 0.5 1.9 1.3 6.1 2.6 0.2 0.8 0.5 1.7 0.8 2.5 -2.1 2.9-3.2 4.7-3.3 5.4 0 0.1 0 0.2 0.1 0.3 3 2.7 4.6 4.1 4.6 4.1 0.2 0 1-0.5 2.4-1.6 1.3-1.1 2.3-1.9 2.8-2.4 0.6 0.2 1 0.3 1.3 0.3 0.3 0.1 0.7 0.1 1.3 0.2 0.3 0.7 0.8 1.8 1.6 3.3 0.8 1.5 1.3 2.3 1.5 2.4 0.1 0 2-0.6 5.9-1.9 0.1-0.1 0.2-0.1 0.2-0.3 0.1-0.7-0.2-2.8-1-6.3 0.7-0.6 1.2-1.3 1.7-1.9 4.3 0.4 6.5 0.4 6.6 0l1.2-5.9C118.7 82 116.7 81.1 112.5 79.8zM105.6 86c-1.1 1.1-2.4 1.6-3.9 1.6 -1.5 0-2.8-0.5-3.9-1.6 -1.1-1.1-1.6-2.4-1.6-3.9 0-1.5 0.5-2.8 1.6-3.9 1.1-1.1 2.4-1.6 3.9-1.6s2.8 0.5 3.9 1.6 1.6 2.4 1.6 3.9C107.3 83.6 106.7 84.9 105.6 86z" style="fill:none;stroke-width:3;stroke:#F48A36"/><path d="M107.3 128.6c0-1.5-0.5-2.8-1.6-3.9 -1.1-1.1-2.4-1.6-3.9-1.6s-2.8 0.5-3.9 1.6c-1.1 1.1-1.6 2.4-1.6 3.9 0 1.5 0.5 2.8 1.6 3.9 1.1 1.1 2.4 1.6 3.9 1.6 1.5 0 2.8-0.5 3.9-1.6C106.7 131.4 107.3 130.1 107.3 128.6z" class="c"/><circle cx="240.8" cy="105.3" r="67.1" class="a"/><path d="M252.1 82.5h-55.5c-3.5 0-6.6 2.8-6.6 6.3v32.8c0 3.5 3.1 5.9 6.6 5.9H199v14.3l14.6-14.2h38.5c3.5 0 5.9-2.5 5.9-5.9v-32.8C258 85.3 255.6 82.5 252.1 82.5z" class="d"/><path d="M227.5 71.5h55.5c3.5 0 6 2.8 6 6.3v32.8c0 3.5-2.5 5.9-6 5.9H280v14.3l-14.1-14.2h-38.5c-3.5 0-6.5-2.5-6.5-5.9v-32.8C221 74.3 224 71.5 227.5 71.5z" class="d"/><path d="M205.7 110.8c0-1.2 0.2-2.1 0.4-2.8s0.7-1.4 1.5-2.2l1.9-2c0.8-0.9 1.2-1.9 1.2-3 0-1-0.3-1.8-0.8-2.4s-1.3-0.9-2.4-0.9c-1 0-1.8 0.3-2.4 0.8 -0.6 0.5-0.9 1.2-0.9 2.1h-2.7c0-1.6 0.6-2.9 1.7-3.8s2.6-1.5 4.3-1.5c1.9 0 3.3 0.5 4.3 1.5 1 1 1.6 2.4 1.6 4.1 0 1.7-0.8 3.4-2.4 5.1l-1.6 1.6c-0.7 0.8-1.1 1.9-1.1 3.4H205.7zM205.6 115.5c0-0.4 0.1-0.8 0.4-1.1 0.3-0.3 0.7-0.5 1.2-0.5s0.9 0.2 1.2 0.5c0.3 0.3 0.4 0.7 0.4 1.1s-0.1 0.8-0.4 1.1 -0.7 0.4-1.2 0.4 -0.9-0.1-1.2-0.4S205.6 116 205.6 115.5z" class="e"/><path d="M235.1 96.7c0-0.7 0.2-1.4 0.7-1.9s1.1-0.7 2-0.7 1.6 0.3 2 0.8 0.7 1.1 0.7 1.9c0 0.7-0.2 1.3-0.7 1.8s-1.1 0.7-2 0.7 -1.6-0.2-2-0.7S235.1 97.4 235.1 96.7z" class="e"/><path d="M252.6 96.7c0-0.7 0.2-1.4 0.7-1.9s1.1-0.7 2-0.7 1.6 0.3 2 0.8 0.7 1.1 0.7 1.9c0 0.7-0.2 1.3-0.7 1.8s-1.1 0.7-2 0.7 -1.6-0.2-2-0.7S252.6 97.4 252.6 96.7z" class="e"/><path d="M270 96.7c0-0.7 0.2-1.4 0.7-1.9s1.1-0.7 2-0.7 1.6 0.3 2 0.8 0.7 1.1 0.7 1.9c0 0.7-0.2 1.3-0.7 1.8s-1.1 0.7-2 0.7 -1.6-0.2-2-0.7S270 97.4 270 96.7z" class="e"/>
</svg>
