<svg xmlns="http://www.w3.org/2000/svg" xmlns:xlink="http://www.w3.org/1999/xlink" width="600" height="400" viewBox="0 0 600 400">
    <style>
        .a{fill:none;stroke-width:4;stroke:#4E4E4E;}
        .b{fill:#4E4E4E;}
        .c{fill:#E5E5E5;}
        .d{fill:none;stroke-linejoin:round;stroke-width:4;stroke:#4E4E4E;}
        .e{fill:none;stroke-width:4;stroke:#F48A36;}
        .f{fill:none;stroke-width:3;stroke:#4E4E4E;}
        .g{fill:#4E4E4E;font-family:'Roboto-Light';font-size:30;}
    </style>
    <!-- <animateMotion
          xlink:href="#move"
          dur="3s"
          repeatCount="indefinite"
          fill="freeze"
          path="M 25,50 C 37.5,25 37.5,25 50,0 75,50 75,50 100,100 50,100 50,100 0,100 12.5,75 12.5,75 25,50 Z" /> -->

    <g>
        <polyline points="71 348 156 348 156 340 " class="a"/>
        <polygon points="74 357.5 56.7 347.5 74 337.6 " class="b"/>
        <path d="M235 364.1c0 2.9-2.7 4.9-5.6 4.9H48.2C45.3 369 43 367 43 364.1v-56.9c0-2.9 2.3-5.3 5.2-5.3h181.2c2.9 0 5.6 2.4 5.6 5.3V364.1z" class="a"/>
        <path id="move" d="M90.1 324.4c1.1 0.5 1.9 1.2 2.4 2.1 0.5 0.8 0.9 1.8 1.1 2.9 0.2 0.7 0.2 1.9 0.2 3.6H82.1c0.1 1.6 0.4 3 1.2 4 0.7 1 1.8 1.5 3.3 1.5 1.4 0 2.5-0.5 3.4-1.4 0.5-0.5 0.8-1.2 1-1.9h2.7c-0.1 0.6-0.3 1.3-0.7 2 -0.4 0.7-0.8 1.3-1.3 1.8 -0.8 0.8-1.8 1.4-3 1.6 -0.6 0.2-1.4 0.2-2.2 0.2 -2 0-3.7-0.7-5.1-2.2 -1.4-1.5-2.1-3.5-2.1-6.2 0-2.6 0.7-4.7 2.1-6.3 1.4-1.6 3.2-2.4 5.5-2.4C87.9 323.5 89 323.8 90.1 324.4zM91 330.7c-0.1-1.2-0.4-2.1-0.8-2.8 -0.7-1.3-2-2-3.7-2 -1.2 0-2.3 0.5-3.1 1.4 -0.8 0.9-1.3 2-1.3 3.4H91z" class="b"/>
        <path d="M97.3 323.9h2.6v2.3c0.8-0.9 1.6-1.6 2.4-2 0.9-0.4 1.8-0.6 2.9-0.6 2.3 0 3.8 0.8 4.7 2.4 0.4 0.9 0.7 2.1 0.7 3.8v10.4h-2.8v-10.2c0-1-0.1-1.8-0.4-2.4 -0.5-1-1.4-1.5-2.6-1.5 -0.6 0-1.2 0.1-1.6 0.2 -0.7 0.2-1.4 0.7-2 1.3 -0.5 0.5-0.7 1.1-0.9 1.7 -0.1 0.6-0.2 1.4-0.2 2.4v8.5h-2.7V323.9z" class="b"/>
        <path d="M115 319.4h2.7v4.5h2.6v2.2h-2.6v10.6c0 0.6 0.2 0.9 0.6 1.1 0.2 0.1 0.6 0.2 1.1 0.2 0.1 0 0.3 0 0.4 0s0.3 0 0.5-0.1v2.2c-0.3 0.1-0.6 0.2-1 0.2 -0.3 0-0.7 0.1-1.1 0.1 -1.3 0-2.1-0.3-2.6-1 -0.5-0.6-0.7-1.5-0.7-2.5v-10.7h-2.2v-2.2h2.2V319.4z" class="b"/>
        <path d="M133 324.4c1.1 0.5 1.9 1.2 2.4 2.1 0.5 0.8 0.9 1.8 1.1 2.9 0.2 0.7 0.2 1.9 0.2 3.6h-11.8c0.1 1.6 0.4 3 1.2 4 0.7 1 1.8 1.5 3.3 1.5 1.4 0 2.5-0.5 3.4-1.4 0.5-0.5 0.8-1.2 1-1.9h2.7c-0.1 0.6-0.3 1.3-0.7 2 -0.4 0.7-0.8 1.3-1.3 1.8 -0.8 0.8-1.8 1.4-3 1.6 -0.6 0.2-1.4 0.2-2.2 0.2 -2 0-3.7-0.7-5.1-2.2s-2.1-3.5-2.1-6.2c0-2.6 0.7-4.7 2.1-6.3 1.4-1.6 3.2-2.4 5.5-2.4C130.9 323.5 132 323.8 133 324.4zM134 330.7c-0.1-1.2-0.4-2.1-0.8-2.8 -0.7-1.3-2-2-3.7-2 -1.2 0-2.3 0.5-3.1 1.4 -0.8 0.9-1.3 2-1.3 3.4H134z" class="b"/>
        <path d="M140.3 323.9h2.6v2.8c0.2-0.5 0.7-1.2 1.6-2 0.8-0.8 1.8-1.2 2.9-1.2 0.1 0 0.1 0 0.3 0 0.1 0 0.3 0 0.6 0.1v2.9c-0.2 0-0.3 0-0.4-0.1 -0.1 0-0.3 0-0.4 0 -1.4 0-2.4 0.4-3.2 1.3s-1.1 1.9-1.1 3v9.3h-2.7V323.9z" class="b"/>
        <animateTransform id="pause"
            attributeType="XML"
            attributeName="transform"
            type="translate"
            begin="0; updateScreen.end"
            dur="1"/>
        <animateTransform id="buttonPush"
            attributeType="XML"
            attributeName="transform"
            type="translate"
            begin="pause.end"
            dur=".4s"
            values="0,0; 0,6; 0,0"
            keySplines="0.42 0 1 1; 0 0 0.59 1; 0.42 0 1 1;"
            calcMode="paced"/>
    </g>
    <path d="M43 350v26.1c0 2.9 2.3 4.9 5.2 4.9h181.2c2.9 0 5.6-2 5.6-4.9V350" class="a"/>
    <g style="opacity: 0;">
        <line x1="138.5" y1="283" x2="138.5" y2="208" class="f"/>
        <polygon points="149.1 211 138.7 192.9 128.2 211 " class="b"/>
        <animate
            attributeType="CSS"
            attributeName="opacity"
            from="0"
            to="1"
            begin="pause.end + .4"
            dur=".3s"
            fill="freeze"/>
        <animateTransform id="arrow1Appear"
            attributeName="transform"
            attributeType="XML"
            type="translate"
            begin="pause.end + .4"
            dur=".3s"
            values="0,6;0,0"/>
    </g>
    <path d="M191 167.2c0 2.7-2.2 4.8-4.8 4.8H91.8c-2.7 0-4.8-2.2-4.8-4.8V60.8C87 58.2 89.2 56 91.8 56h94.3c2.7 0 4.8 2.2 4.8 4.8V167.2z" class="a"/>
    <line x1="87" y1="95" x2="191" y2="95" class="a"/>
    <line x1="87" y1="133" x2="191" y2="133" class="a"/>
    <line x1="100" y1="76" x2="157" y2="76" class="a"/>
    <line x1="100" y1="114" x2="157" y2="114" class="a"/>
    <line x1="100" y1="153" x2="157" y2="153" class="a"/>
    <g>
        <circle id="circle1" cx="174" cy="75.4" r="6.2" class="a">
            <animate id="circle1Activate"
                attributeType="CSS"
                attributeName="stroke"
                dur="2s"
                values="#4d4d4d; #ef882b; #4d4d4d; #ef882b; #ef882b; #4d4d4d"
                keyTimes="0; 0.03; 0.06; 0.09; 0.9; 1"
                begin="pause.end + .7"
                fill="freeze"/>
        </circle>
        <use xlink:href="#circle1" x="0" y="38.6" />
        <use xlink:href="#circle1" x="0" y="77.2" />
    </g>
    <g style="opacity: 0;">
        <line x1="235" y1="114.5" x2="344" y2="114.5" class="f"/>
        <polygon points="341 125 359.1 114.5 341 104 " class="b"/>
        <animate
            attributeType="CSS"
            attributeName="opacity"
            from="0"
            to="1"
            begin="pause.end + 1.2"
            dur=".3s"
            fill="freeze"/>
        <animateTransform id="arrow2Appear"
            attributeName="transform"
            attributeType="XML"
            type="translate"
            begin="pause.end + 1.2"
            dur=".3s"
            values="-6,0;0,0" />
    </g>
    <path d="M496 167.2c0 2.7-2.2 4.8-4.8 4.8h-94.3c-2.7 0-4.8-2.2-4.8-4.8V60.8c0-2.7 2.2-4.8 4.8-4.8h94.3c2.7 0 4.8 2.2 4.8 4.8V167.2z" class="a"/>
    <line x1="392" y1="95" x2="497" y2="95" class="a"/>
    <line x1="392" y1="133" x2="497" y2="133" class="a"/>
    <line x1="405" y1="76" x2="462" y2="76" class="a"/>
    <line x1="405" y1="114" x2="462" y2="114" class="a"/>
    <line x1="405" y1="153" x2="462" y2="153" class="a"/>
    <g>
        <circle id="circle2" cx="479.6" cy="75.4" r="6.2" class="a">
            <animate id="circle2Activate"
                attributeType="CSS"
                attributeName="stroke"
                dur="2s"
                values="#4d4d4d; #ef882b; #4d4d4d; #ef882b; #ef882b; #4d4d4d"
                keyTimes="0; 0.03; 0.06; 0.09; 0.9; 1"
                begin="pause.end + 1.5"
                fill="freeze"/>
        </circle>
        <use xlink:href="#circle2" x="0" y="38.6" />
        <use xlink:href="#circle2" x="0" y="77.2" />
    </g>
    <g style="opacity: 0;">
        <line x1="444.5" y1="186" x2="444.5" y2="226" class="f"/>
        <polygon points="434.2 223 444.7 241.1 455.1 223 " class="b"/>
        <animate
            attributeType="CSS"
            attributeName="opacity"
            from="0"
            to="1"
            begin="pause.end + 2.0"
            dur=".3s"
            fill="freeze"/>
        <animateTransform id="arrow3Appear"
            attributeName="transform"
            attributeType="XML"
            type="translate"
            begin="pause.end + 2.0"
            dur=".3s"
            values="0,-6;0,0"
            repeatCount="0"/>
    </g>
    <g>
        <rect x="369.4" y="278.1" width="149.6" height="35" class="c">
            <animate id="updateScreen"
                attributeType="CSS"
                attributeName="fill"
                dur="3s"
                values="#E5E5E5; #ef882b; #ef882b; #E5E5E5"
                keyTimes="0; 0.05; 0.75; 1"
                begin="pause.end + 3.3"
                repeatCount="0"
                fill="freeze"/>
        </rect>
        <rect x="391.5" y="335.4" width="29" height="2.9" class="c"/>
        <rect x="391.5" y="341.8" width="29" height="2.9" class="c"/>
        <rect x="391.5" y="348.2" width="29" height="2.9" class="c"/>
        <rect x="391.5" y="319.7" width="29" height="11.8" class="b"/>
        <rect x="467.9" y="335.4" width="29" height="2.9" class="c"/>
        <rect x="467.9" y="341.8" width="29" height="2.9" class="c"/>
        <rect x="467.9" y="348.2" width="29" height="2.9" class="c"/>
        <rect x="467.9" y="319.7" width="29" height="11.8" class="b"/>
        <rect x="429.7" y="335.4" width="29" height="2.9" class="c"/>
        <rect x="429.7" y="341.8" width="29" height="2.9" class="c"/>
        <rect x="429.7" y="348.2" width="29" height="2.9" class="c"/>
        <rect x="429.7" y="319.7" width="29" height="11.8" class="b"/>
        <circle cx="398.4" cy="271.8" r="4" fill="#F48A36"/>
        <rect x="409.9" y="270.4" width="12.9" height="2.9" class="c"/>
        <rect x="428.8" y="270.4" width="12.9" height="2.9" class="c"/>
        <rect x="447.7" y="270.4" width="12.9" height="2.9" class="c"/>
    </g>
    <g transform="translate(416,290)">
        <path style="fill:none;stroke:#ef882b;stroke-width:3;stroke-miterlimit:10;opacity:0;" d="M45.307,27.826c0,0.101-0.011,0.17-0.032,0.21
        c-1.277,5.359-3.956,9.701-8.035,13.029c-4.078,3.327-8.854,4.993-14.331,4.993c-2.919,0-5.742-0.552-8.471-1.65
        c-2.729-1.101-5.164-2.669-7.301-4.708l-3.87,3.868c-0.38,0.382-0.829,0.57-1.35,0.57c-0.52,0-0.969-0.188-1.347-0.57
        C0.19,43.187,0,42.74,0,42.22V28.786c0-0.521,0.19-0.97,0.57-1.349c0.378-0.38,0.827-0.57,1.347-0.57h13.434
        c0.52,0,0.969,0.19,1.35,0.57c0.38,0.379,0.57,0.828,0.57,1.349s-0.19,0.97-0.57,1.35l-4.107,4.107
        c1.418,1.319,3.027,2.34,4.826,3.059c1.801,0.72,3.669,1.079,5.607,1.079c2.678,0,5.177-0.648,7.496-1.949
        c2.32-1.299,4.18-3.088,5.579-5.367c0.22-0.338,0.75-1.509,1.59-3.508c0.159-0.46,0.46-0.689,0.898-0.689h5.758
        c0.259,0,0.483,0.095,0.674,0.285C45.214,27.343,45.307,27.567,45.307,27.826z M46.057,3.839v13.433c0,0.521-0.19,0.971-0.57,1.35
        c-0.378,0.38-0.829,0.57-1.351,0.57H30.705c-0.522,0-0.97-0.19-1.35-0.57c-0.38-0.379-0.57-0.829-0.57-1.35s0.19-0.97,0.57-1.349
        l4.14-4.138c-2.961-2.739-6.451-4.108-10.468-4.108c-2.678,0-5.177,0.649-7.496,1.948c-2.316,1.301-4.178,3.09-5.576,5.368
        c-0.222,0.339-0.75,1.51-1.59,3.508c-0.159,0.461-0.46,0.69-0.898,0.69H1.5c-0.262,0-0.486-0.095-0.676-0.285
        c-0.19-0.19-0.285-0.415-0.285-0.675v-0.21c1.299-5.356,3.999-9.699,8.095-13.028C12.734,1.664,17.53,0,23.027,0
        c2.919,0,5.758,0.555,8.519,1.664c2.757,1.109,5.205,2.674,7.345,4.693l3.899-3.868c0.377-0.379,0.828-0.569,1.346-0.569
        c0.521,0,0.973,0.19,1.351,0.569C45.866,2.868,46.057,3.32,46.057,3.839z">
            <animateTransform
                attributeName="transform"
                attributeType="XML"
                type="rotate"
                begin="arrow3Appear.end"
                dur="2s"
                values="0 23 23; 360 23 23"
                repeatCount="3"/>
            <animate id="updateSpinner"
                attributeType="CSS"
                attributeName="opacity"
                begin="arrow3Appear.end"
                dur="1.2s"
                values="0; 1; 1; 0"
                keyTimes="0; 0.1; 0.9; 1"
                repeatCount="0"/>
        </path>
    </g>
    <g>
        <path d="M529 364v-98.6c0-6.7-6-11.4-12.6-11.4h-145c-6.7 0-12.4 4.7-12.4 11.4V365" class="d"/>
        <path d="M474.1 366c0 2-1.8 4-4 4h-50.3c-2.2 0-4-2-4-4h-84.6l0 0c0 0 0 12 12.1 12H544.6c6.7 0 12.1-4 12.1-12l0 0H474.1z" class="d"/>
        <rect x="369" y="263" width="149" height="93" class="d"/>
    </g>
    <text x="140" y="41" font-size="1.5em" text-anchor="middle" class="g">Version Controll</text>
    <text x="440" y="41" font-size="1.5em" text-anchor="middle" class="g">Codethink Server</text>
</svg>
