<?xml version="1.0" encoding="utf-8"?>
<!-- Generator: Adobe Illustrator 16.0.4, SVG Export Plug-In . SVG Version: 6.00 Build 0)  -->
<!DOCTYPE svg PUBLIC "-//W3C//DTD SVG 1.1//EN" "http://www.w3.org/Graphics/SVG/1.1/DTD/svg11.dtd">
<svg version="1.1" id="Ebene_1" xmlns="http://www.w3.org/2000/svg" xmlns:xlink="http://www.w3.org/1999/xlink" x="0px" y="0px"
	 width="80px" height="80px" viewBox="0 0 80 80" style="enable-background:new 0 0 80 80;" xml:space="preserve">
<g>
	<path style="fill:none;stroke:#4E4E4E;stroke-width:3;stroke-miterlimit:10;" d="M45.307,27.826c0,0.101-0.011,0.17-0.032,0.21
		c-1.277,5.359-3.956,9.701-8.035,13.029c-4.078,3.327-8.854,4.993-14.331,4.993c-2.919,0-5.742-0.552-8.471-1.65
		c-2.729-1.101-5.164-2.669-7.301-4.708l-3.87,3.868c-0.38,0.382-0.829,0.57-1.35,0.57c-0.52,0-0.969-0.188-1.347-0.57
		C0.19,43.187,0,42.74,0,42.22V28.786c0-0.521,0.19-0.97,0.57-1.349c0.378-0.38,0.827-0.57,1.347-0.57h13.434
		c0.52,0,0.969,0.19,1.35,0.57c0.38,0.379,0.57,0.828,0.57,1.349s-0.19,0.97-0.57,1.35l-4.107,4.107
		c1.418,1.319,3.027,2.34,4.826,3.059c1.801,0.72,3.669,1.079,5.607,1.079c2.678,0,5.177-0.648,7.496-1.949
		c2.32-1.299,4.18-3.088,5.579-5.367c0.22-0.338,0.75-1.509,1.59-3.508c0.159-0.46,0.46-0.689,0.898-0.689h5.758
		c0.259,0,0.483,0.095,0.674,0.285C45.214,27.343,45.307,27.567,45.307,27.826z M46.057,3.839v13.433c0,0.521-0.19,0.971-0.57,1.35
		c-0.378,0.38-0.829,0.57-1.351,0.57H30.705c-0.522,0-0.97-0.19-1.35-0.57c-0.38-0.379-0.57-0.829-0.57-1.35s0.19-0.97,0.57-1.349
		l4.14-4.138c-2.961-2.739-6.451-4.108-10.468-4.108c-2.678,0-5.177,0.649-7.496,1.948c-2.316,1.301-4.178,3.09-5.576,5.368
		c-0.222,0.339-0.75,1.51-1.59,3.508c-0.159,0.461-0.46,0.69-0.898,0.69H1.5c-0.262,0-0.486-0.095-0.676-0.285
		c-0.19-0.19-0.285-0.415-0.285-0.675v-0.21c1.299-5.356,3.999-9.699,8.095-13.028C12.734,1.664,17.53,0,23.027,0
		c2.919,0,5.758,0.555,8.519,1.664c2.757,1.109,5.205,2.674,7.345,4.693l3.899-3.868c0.377-0.379,0.828-0.569,1.346-0.569
		c0.521,0,0.973,0.19,1.351,0.569C45.866,2.868,46.057,3.32,46.057,3.839z"/>
</g>
</svg>
